<svg width="2000px" height="1524px"
 viewBox="0.00 0.00 1164.52 887.80" xmlns="http://www.w3.org/2000/svg" xmlns:xlink="http://www.w3.org/1999/xlink">
<g id="graph0" class="graph" transform="scale(1.0 1.0) rotate(0) translate(4 883.8)">
<title>ContextMapGraph</title>
<polygon fill="white" stroke="none" points="-4,4 -4,-883.8 1160.52,-883.8 1160.52,4 -4,4"/>
<!-- AIModelDevelopmentContext -->
<g id="node1" class="node">
<title>AIModelDevelopmentContext</title>
<polygon fill="none" stroke="black" stroke-width="2" points="479.67,-504.09 482.62,-501.14 486.05,-498.24 489.95,-495.39 494.32,-492.63 499.14,-489.95 504.38,-487.36 510.04,-484.88 516.1,-482.52 522.54,-480.29 529.34,-478.18 536.48,-476.22 543.94,-474.4 551.7,-472.74 559.74,-471.23 568.03,-469.89 576.56,-468.71 585.3,-467.7 594.22,-466.86 603.32,-466.19 612.55,-465.69 621.9,-465.36 631.34,-465.2 640.85,-465.2 650.4,-465.36 659.98,-465.67 669.56,-466.14 679.11,-466.76 688.61,-467.51 698.03,-468.4 707.36,-469.42 716.58,-470.56 725.65,-471.81 734.56,-473.17 743.28,-474.63 751.79,-476.18 760.08,-477.81 768.11,-479.52 775.88,-481.3 783.36,-483.14 790.53,-485.03 797.37,-486.97 803.87,-488.95 810,-490.97 815.76,-493.01 821.12,-495.08 826.08,-497.16 830.61,-499.26 834.7,-501.36 838.34,-503.47 841.53,-505.58 844.24,-507.68 846.47,-509.78 848.22,-511.87 849.47,-513.96 850.22,-516.02 850.46,-518.08 850.2,-520.11 849.43,-522.13 848.14,-524.13 846.35,-526.11 844.04,-528.06 841.23,-530 837.93,-531.91 834.13,-533.79 829.85,-535.65 825.09,-537.47 819.87,-539.27 814.19,-541.03 808.08,-542.76 801.55,-544.45 794.61,-546.1 787.29,-547.7 779.6,-549.26 771.56,-550.76 763.19,-552.21 754.53,-553.6 745.59,-554.93 736.4,-556.18 726.98,-557.36 717.36,-558.46 707.57,-559.47 697.64,-560.4 687.6,-561.22 677.48,-561.95 667.3,-562.56 657.1,-563.06 646.91,-563.44 636.76,-563.7 626.68,-563.83 616.7,-563.83 606.84,-563.69 597.15,-563.4 587.64,-562.97 578.35,-562.4 569.31,-561.67 560.54,-560.8 552.06,-559.77 543.91,-558.59 536.1,-557.26 528.67,-555.78 521.62,-554.16 514.99,-552.39 508.78,-550.48 503.03,-548.44 497.73,-546.27 492.92,-543.97 488.59,-541.56 484.76,-539.04 481.44,-536.42 478.65,-533.72 476.37,-530.93 474.62,-528.07 473.41,-525.15 472.73,-522.19 472.58,-519.19 472.95,-516.17 473.86,-513.14 475.29,-510.1 477.23,-507.09 479.67,-504.09"/>
<text text-anchor="middle" x="662.52" y="-511.91" font-family="sans-serif" font-size="16.00">AIModelDevelopmentContext</text>
</g>
<!-- DataCanonizationContext -->
<g id="node2" class="node">
<title>DataCanonizationContext</title>
<polygon fill="none" stroke="black" stroke-width="2" points="664.17,-366.83 662.61,-363.82 661.52,-360.81 660.9,-357.82 660.76,-354.85 661.1,-351.92 661.93,-349.04 663.24,-346.22 665.04,-343.47 667.32,-340.8 670.07,-338.22 673.3,-335.74 676.98,-333.37 681.13,-331.11 685.71,-328.98 690.72,-326.96 696.15,-325.09 701.98,-323.34 708.19,-321.74 714.77,-320.28 721.69,-318.97 728.94,-317.8 736.48,-316.77 744.31,-315.89 752.39,-315.16 760.69,-314.57 769.21,-314.12 777.89,-313.81 786.73,-313.63 795.69,-313.59 804.74,-313.67 813.86,-313.88 823.02,-314.2 832.18,-314.64 841.33,-315.19 850.43,-315.84 859.45,-316.59 868.37,-317.43 877.16,-318.36 885.79,-319.38 894.25,-320.47 902.5,-321.64 910.52,-322.88 918.28,-324.18 925.78,-325.54 932.98,-326.96 939.87,-328.44 946.43,-329.96 952.63,-331.54 958.48,-333.15 963.94,-334.81 969.02,-336.52 973.69,-338.26 977.95,-340.04 981.79,-341.85 985.19,-343.7 988.16,-345.58 990.7,-347.49 992.78,-349.43 994.42,-351.41 995.62,-353.41 996.36,-355.43 996.66,-357.48 996.52,-359.56 995.93,-361.66 994.91,-363.77 993.46,-365.91 991.59,-368.05 989.3,-370.21 986.6,-372.38 983.51,-374.55 980.02,-376.71 976.16,-378.88 971.93,-381.03 967.35,-383.17 962.42,-385.28 957.17,-387.37 951.6,-389.42 945.73,-391.44 939.57,-393.4 933.14,-395.31 926.45,-397.15 919.53,-398.92 912.38,-400.61 905.02,-402.22 897.48,-403.73 889.76,-405.13 881.9,-406.43 873.89,-407.6 865.77,-408.65 857.55,-409.57 849.25,-410.35 840.89,-410.98 832.49,-411.46 824.07,-411.78 815.64,-411.95 807.24,-411.94 798.88,-411.77 790.59,-411.43 782.37,-410.92 774.25,-410.24 766.26,-409.38 758.42,-408.35 750.74,-407.16 743.24,-405.79 735.95,-404.27 728.89,-402.58 722.08,-400.75 715.53,-398.77 709.27,-396.64 703.31,-394.39 697.67,-392.02 692.38,-389.53 687.44,-386.94 682.88,-384.25 678.71,-381.49 674.94,-378.65 671.59,-375.75 668.68,-372.81 666.2,-369.83 664.17,-366.83"/>
<text text-anchor="middle" x="830.52" y="-356.92" font-family="sans-serif" font-size="16.00">DataCanonizationContext</text>
</g>
<!-- AIModelDevelopmentContext&#45;&gt;DataCanonizationContext -->
<g id="edge1" class="edge">
<title>AIModelDevelopmentContext&#45;&gt;DataCanonizationContext</title>
<path fill="none" stroke="black" stroke-width="2" d="M711.1,-469.78C725.07,-456.87 740.37,-442.81 754.52,-429.95 761.47,-423.63 768.79,-417.01 776.05,-410.49"/>
<text text-anchor="middle" x="814.52" y="-435.8" font-family="sans-serif" font-size="12.00"> &#160;&#160;&#160;&#160;&#160;&#160;&#160;&#160;&#160;&#160;&#160;&#160;&#160;&#160;&#160;&#160;&#160;&#160;&#160;&#160;&#160;&#160;&#160;&#160;&#160;&#160;&#160;&#160;&#160;&#160;&#160;&#160;&#160;&#160;&#160;&#160;&#160;&#160;&#160;</text>
<polygon fill="white" stroke="none" points="769.55,-399.86 769.55,-421.11 782.55,-421.11 782.55,-399.86 769.55,-399.86"/>
<text text-anchor="start" x="771.55" y="-407.71" font-family="sans-serif" font-size="12.00">D</text>
<polygon fill="white" stroke="none" points="704.6,-459.15 704.6,-480.4 717.6,-480.4 717.6,-459.15 704.6,-459.15"/>
<text text-anchor="start" x="706.6" y="-467" font-family="sans-serif" font-size="12.00">U</text>
</g>
<!-- InvestigationAndDevelopmentContext -->
<g id="node5" class="node">
<title>InvestigationAndDevelopmentContext</title>
<polygon fill="none" stroke="black" stroke-width="2" points="174.81,-395.11 163.33,-393.09 152.36,-390.98 141.94,-388.8 132.13,-386.55 122.97,-384.24 114.48,-381.89 106.71,-379.49 99.7,-377.07 93.47,-374.61 88.04,-372.15 83.44,-369.67 79.69,-367.2 76.8,-364.73 74.78,-362.27 73.64,-359.84 73.37,-357.43 73.97,-355.06 75.44,-352.72 77.77,-350.43 80.94,-348.19 84.93,-346 89.73,-343.87 95.29,-341.8 101.6,-339.79 108.63,-337.86 116.33,-336 124.67,-334.21 133.61,-332.5 143.12,-330.86 153.13,-329.31 163.62,-327.84 174.54,-326.46 185.83,-325.16 197.46,-323.95 209.38,-322.82 221.53,-321.79 233.88,-320.84 246.38,-319.99 258.98,-319.22 271.64,-318.55 284.33,-317.98 296.99,-317.49 309.59,-317.1 322.1,-316.81 334.47,-316.61 346.69,-316.52 358.71,-316.51 370.52,-316.61 382.08,-316.81 393.37,-317.11 404.38,-317.5 415.07,-318 425.45,-318.61 435.48,-319.31 445.16,-320.12 454.49,-321.03 463.44,-322.04 472.01,-323.16 480.19,-324.38 487.99,-325.7 495.39,-327.12 502.39,-328.63 508.99,-330.25 515.19,-331.96 520.98,-333.76 526.36,-335.66 531.33,-337.63 535.89,-339.7 540.04,-341.84 543.76,-344.05 547.07,-346.33 549.95,-348.68 552.41,-351.08 554.43,-353.54 556.01,-356.04 557.15,-358.57 557.83,-361.14 558.06,-363.73 557.82,-366.33 557.1,-368.94 555.9,-371.54 554.21,-374.14 552.03,-376.71 549.33,-379.25 546.12,-381.75 542.39,-384.21 538.13,-386.6 533.34,-388.93 528.01,-391.19 522.14,-393.36 515.74,-395.43 508.79,-397.41 501.31,-399.27 493.3,-401.02 484.76,-402.65 475.71,-404.15 466.15,-405.51 456.11,-406.73 445.59,-407.8 434.63,-408.73 423.24,-409.5 411.44,-410.11 399.28,-410.56 386.77,-410.85 373.96,-410.99 360.87,-410.96 347.56,-410.77 334.06,-410.42 320.41,-409.91 306.66,-409.25 292.86,-408.43 279.07,-407.47 265.32,-406.37 251.67,-405.12 238.17,-403.75 224.88,-402.25 211.84,-400.63 199.12,-398.89 186.76,-397.05 174.81,-395.11"/>
<text text-anchor="middle" x="334.52" y="-356.92" font-family="sans-serif" font-size="16.00">InvestigationAndDevelopmentContext</text>
</g>
<!-- AIModelDevelopmentContext&#45;&gt;InvestigationAndDevelopmentContext -->
<g id="edge2" class="edge">
<title>AIModelDevelopmentContext&#45;&gt;InvestigationAndDevelopmentContext</title>
<path fill="none" stroke="black" stroke-width="2" d="M565.88,-469.79C524.88,-450.66 477.07,-428.36 435.59,-409.01"/>
<text text-anchor="middle" x="568.35" y="-435.8" font-family="sans-serif" font-size="12.00"> &#160;&#160;&#160;&#160;&#160;&#160;&#160;&#160;&#160;&#160;&#160;&#160;&#160;&#160;&#160;&#160;&#160;&#160;&#160;&#160;&#160;&#160;&#160;&#160;&#160;&#160;&#160;&#160;&#160;&#160;&#160;&#160;&#160;&#160;&#160;&#160;&#160;&#160;&#160;</text>
<polygon fill="white" stroke="none" points="429.09,-398.39 429.09,-419.64 442.09,-419.64 442.09,-398.39 429.09,-398.39"/>
<text text-anchor="start" x="431.09" y="-406.24" font-family="sans-serif" font-size="12.00">D</text>
<polygon fill="white" stroke="none" points="559.38,-459.16 559.38,-480.41 572.38,-480.41 572.38,-459.16 559.38,-459.16"/>
<text text-anchor="start" x="561.38" y="-467.01" font-family="sans-serif" font-size="12.00">U</text>
</g>
<!-- DataIngestionContext -->
<g id="node3" class="node">
<title>DataIngestionContext</title>
<polygon fill="none" stroke="black" stroke-width="2" points="739.33,-239.99 732.23,-237.92 725.46,-235.77 719.04,-233.56 713.01,-231.27 707.38,-228.94 702.18,-226.55 697.44,-224.13 693.17,-221.68 689.39,-219.21 686.12,-216.72 683.37,-214.23 681.15,-211.75 679.47,-209.27 678.34,-206.81 677.76,-204.37 677.72,-201.96 678.23,-199.59 679.29,-197.26 680.88,-194.97 682.99,-192.74 685.62,-190.57 688.75,-188.45 692.36,-186.4 696.43,-184.42 700.95,-182.51 705.89,-180.68 711.23,-178.92 716.94,-177.24 722.99,-175.64 729.37,-174.12 736.04,-172.69 742.97,-171.34 750.14,-170.08 757.51,-168.91 765.05,-167.83 772.74,-166.83 780.55,-165.93 788.44,-165.12 796.4,-164.4 804.39,-163.77 812.38,-163.24 820.36,-162.8 828.29,-162.45 836.16,-162.2 843.95,-162.05 851.62,-161.99 859.18,-162.03 866.58,-162.17 873.83,-162.41 880.91,-162.74 887.79,-163.18 894.48,-163.72 900.96,-164.35 907.22,-165.09 913.26,-165.93 919.06,-166.88 924.63,-167.92 929.95,-169.07 935.02,-170.31 939.84,-171.66 944.41,-173.1 948.72,-174.65 952.78,-176.28 956.57,-178.01 960.11,-179.84 963.38,-181.75 966.4,-183.74 969.14,-185.82 971.63,-187.98 973.85,-190.2 975.8,-192.5 977.48,-194.85 978.89,-197.26 980.02,-199.73 980.87,-202.23 981.45,-204.77 981.73,-207.34 981.73,-209.93 981.44,-212.53 980.84,-215.13 979.94,-217.73 978.74,-220.32 977.22,-222.88 975.39,-225.42 973.23,-227.91 970.76,-230.35 967.95,-232.73 964.81,-235.04 961.34,-237.28 957.54,-239.42 953.4,-241.48 948.93,-243.43 944.12,-245.27 939,-246.99 933.54,-248.59 927.78,-250.06 921.7,-251.38 915.33,-252.57 908.66,-253.61 901.73,-254.49 894.53,-255.22 887.09,-255.79 879.43,-256.21 871.56,-256.45 863.5,-256.54 855.29,-256.47 846.94,-256.23 838.48,-255.83 829.94,-255.28 821.34,-254.57 812.72,-253.71 804.11,-252.7 795.54,-251.55 787.04,-250.26 778.64,-248.84 770.37,-247.29 762.28,-245.62 754.39,-243.85 746.73,-241.97 739.33,-239.99"/>
<text text-anchor="middle" x="841.52" y="-202.35" font-family="sans-serif" font-size="16.00">DataIngestionContext</text>
</g>
<!-- DataCanonizationContext&#45;&gt;DataIngestionContext -->
<g id="edge3" class="edge">
<title>DataCanonizationContext&#45;&gt;DataIngestionContext</title>
<path fill="none" stroke="black" stroke-width="2" d="M833.79,-314.51C835.11,-296.15 836.65,-274.91 837.99,-256.21"/>
<text text-anchor="middle" x="896.35" y="-280.39" font-family="sans-serif" font-size="12.00"> &#160;&#160;&#160;&#160;&#160;&#160;&#160;&#160;&#160;&#160;&#160;&#160;&#160;&#160;&#160;&#160;&#160;&#160;&#160;&#160;&#160;&#160;&#160;&#160;&#160;&#160;&#160;&#160;&#160;&#160;&#160;&#160;&#160;&#160;&#160;&#160;&#160;&#160;&#160;</text>
<polygon fill="white" stroke="none" points="831.49,-245.58 831.49,-266.83 844.49,-266.83 844.49,-245.58 831.49,-245.58"/>
<text text-anchor="start" x="833.49" y="-253.43" font-family="sans-serif" font-size="12.00">D</text>
<polygon fill="white" stroke="none" points="827.29,-303.88 827.29,-325.13 840.29,-325.13 840.29,-303.88 827.29,-303.88"/>
<text text-anchor="start" x="829.29" y="-311.73" font-family="sans-serif" font-size="12.00">U</text>
</g>
<!-- DataAnonimizationContext -->
<g id="node4" class="node">
<title>DataAnonimizationContext</title>
<polygon fill="none" stroke="black" stroke-width="2" points="1100.68,-69.32 1096.41,-72.15 1091.73,-74.91 1086.64,-77.59 1081.17,-80.18 1075.33,-82.66 1069.14,-85.04 1062.63,-87.3 1055.81,-89.44 1048.71,-91.43 1041.34,-93.28 1033.74,-94.98 1025.92,-96.52 1017.9,-97.9 1009.71,-99.12 1001.36,-100.16 992.9,-101.04 984.32,-101.74 975.66,-102.26 966.94,-102.62 958.18,-102.79 949.4,-102.8 940.62,-102.64 931.86,-102.32 923.15,-101.83 914.5,-101.19 905.93,-100.4 897.46,-99.46 889.11,-98.39 880.9,-97.18 872.84,-95.85 864.96,-94.41 857.26,-92.86 849.78,-91.21 842.52,-89.46 835.49,-87.64 828.72,-85.73 822.22,-83.77 816,-81.74 810.09,-79.66 804.48,-77.54 799.2,-75.39 794.26,-73.2 789.67,-71 785.44,-68.78 781.59,-66.55 778.12,-64.31 775.05,-62.08 772.39,-59.86 770.14,-57.65 768.32,-55.45 766.92,-53.27 765.97,-51.11 765.46,-48.98 765.4,-46.88 765.8,-44.81 766.65,-42.77 767.96,-40.76 769.74,-38.79 771.97,-36.85 774.66,-34.95 777.81,-33.09 781.41,-31.28 785.46,-29.5 789.95,-27.76 794.86,-26.07 800.2,-24.43 805.95,-22.83 812.1,-21.28 818.64,-19.77 825.54,-18.32 832.79,-16.93 840.38,-15.59 848.28,-14.32 856.47,-13.1 864.93,-11.95 873.63,-10.87 882.56,-9.87 891.68,-8.94 900.97,-8.1 910.41,-7.34 919.95,-6.67 929.57,-6.1 939.25,-5.62 948.95,-5.25 958.64,-4.99 968.3,-4.85 977.88,-4.82 987.36,-4.91 996.71,-5.13 1005.9,-5.47 1014.9,-5.95 1023.67,-6.57 1032.2,-7.32 1040.45,-8.2 1048.4,-9.23 1056.01,-10.4 1063.28,-11.71 1070.16,-13.15 1076.65,-14.74 1082.72,-16.46 1088.35,-18.31 1093.53,-20.29 1098.24,-22.39 1102.47,-24.61 1106.2,-26.94 1109.43,-29.38 1112.15,-31.92 1114.35,-34.54 1116.03,-37.25 1117.18,-40.02 1117.81,-42.86 1117.92,-45.75 1117.5,-48.68 1116.58,-51.64 1115.14,-54.62 1113.2,-57.6 1110.78,-60.57 1107.87,-63.52 1104.5,-66.45 1100.68,-69.32"/>
<text text-anchor="middle" x="938.52" y="-47.45" font-family="sans-serif" font-size="16.00">DataAnonimizationContext</text>
</g>
<!-- DataIngestionContext&#45;&gt;DataAnonimizationContext -->
<g id="edge4" class="edge">
<title>DataIngestionContext&#45;&gt;DataAnonimizationContext</title>
<path fill="none" stroke="black" stroke-width="2" d="M869.06,-161.89C881.1,-142.91 895.28,-120.56 907.67,-101.02"/>
<text text-anchor="middle" x="932.68" y="-126.65" font-family="sans-serif" font-size="12.00">Shared Kernel</text>
</g>
<!-- APIManagementContext -->
<g id="node6" class="node">
<title>APIManagementContext</title>
<polygon fill="none" stroke="black" stroke-width="2" points="44.7,-647.81 49.94,-645.17 55.53,-642.62 61.45,-640.15 67.68,-637.79 74.19,-635.54 80.96,-633.41 87.97,-631.41 95.2,-629.55 102.62,-627.84 110.21,-626.28 117.95,-624.87 125.81,-623.63 133.77,-622.56 141.8,-621.66 149.89,-620.93 158.01,-620.38 166.15,-620.01 174.28,-619.8 182.38,-619.78 190.43,-619.92 198.42,-620.24 206.33,-620.72 214.13,-621.37 221.82,-622.17 229.38,-623.12 236.79,-624.22 244.04,-625.46 251.12,-626.84 258,-628.33 264.69,-629.94 271.16,-631.66 277.41,-633.49 283.42,-635.4 289.18,-637.39 294.69,-639.46 299.93,-641.59 304.89,-643.78 309.57,-646.02 313.95,-648.29 318.02,-650.6 321.79,-652.93 325.23,-655.27 328.34,-657.63 331.11,-659.98 333.54,-662.33 335.61,-664.67 337.33,-666.99 338.68,-669.29 339.66,-671.57 340.25,-673.81 340.47,-676.02 340.3,-678.19 339.73,-680.32 338.77,-682.4 337.41,-684.44 335.65,-686.43 333.49,-688.37 330.93,-690.26 327.96,-692.09 324.6,-693.87 320.84,-695.6 316.69,-697.26 312.15,-698.88 307.23,-700.43 301.94,-701.92 296.29,-703.35 290.29,-704.73 283.95,-706.04 277.29,-707.28 270.31,-708.46 263.04,-709.58 255.5,-710.62 247.7,-711.59 239.66,-712.5 231.42,-713.32 222.98,-714.07 214.38,-714.73 205.63,-715.32 196.78,-715.81 187.83,-716.21 178.83,-716.52 169.8,-716.74 160.77,-716.85 151.77,-716.86 142.83,-716.76 133.99,-716.55 125.26,-716.22 116.68,-715.78 108.28,-715.22 100.09,-714.54 92.14,-713.73 84.45,-712.8 77.06,-711.74 69.99,-710.56 63.26,-709.25 56.9,-707.81 50.92,-706.25 45.36,-704.56 40.22,-702.75 35.53,-700.83 31.3,-698.79 27.55,-696.64 24.28,-694.38 21.5,-692.03 19.23,-689.58 17.47,-687.05 16.23,-684.43 15.49,-681.75 15.27,-679.01 15.56,-676.22 16.36,-673.38 17.65,-670.52 19.44,-667.63 21.71,-664.74 24.45,-661.85 27.65,-658.97 31.29,-656.11 35.36,-653.29 39.84,-650.52 44.7,-647.81"/>
<text text-anchor="middle" x="183.52" y="-667.59" font-family="sans-serif" font-size="16.00">APIManagementContext</text>
</g>
<!-- APIManagementContext&#45;&gt;AIModelDevelopmentContext -->
<g id="edge5" class="edge">
<title>APIManagementContext&#45;&gt;AIModelDevelopmentContext</title>
<path fill="none" stroke="black" stroke-width="2" d="M288.64,-636.82C361.34,-613.49 458.47,-582.33 535.51,-557.61"/>
<text text-anchor="middle" x="497.38" y="-590.38" font-family="sans-serif" font-size="12.00"> &#160;&#160;&#160;&#160;&#160;&#160;&#160;&#160;&#160;&#160;&#160;&#160;&#160;&#160;&#160;&#160;&#160;&#160;&#160;&#160;&#160;&#160;&#160;&#160;&#160;&#160;&#160;&#160;&#160;&#160;&#160;&#160;&#160;&#160;&#160;&#160;&#160;&#160;&#160;</text>
<polygon fill="white" stroke="none" points="529.01,-546.99 529.01,-568.24 542.01,-568.24 542.01,-546.99 529.01,-546.99"/>
<text text-anchor="start" x="531.01" y="-554.84" font-family="sans-serif" font-size="12.00">D</text>
<polygon fill="white" stroke="none" points="282.14,-626.19 282.14,-647.44 295.14,-647.44 295.14,-626.19 282.14,-626.19"/>
<text text-anchor="start" x="284.14" y="-634.04" font-family="sans-serif" font-size="12.00">U</text>
</g>
<!-- APIManagementContext&#45;&gt;InvestigationAndDevelopmentContext -->
<g id="edge6" class="edge">
<title>APIManagementContext&#45;&gt;InvestigationAndDevelopmentContext</title>
<path fill="none" stroke="black" stroke-width="2" d="M174.01,-619.64C168.49,-576 166.94,-512.83 192.52,-465.2 205.5,-441.02 226.91,-421.07 249.21,-405.37"/>
<text text-anchor="middle" x="252.52" y="-513.09" font-family="sans-serif" font-size="12.00"> &#160;&#160;&#160;&#160;&#160;&#160;&#160;&#160;&#160;&#160;&#160;&#160;&#160;&#160;&#160;&#160;&#160;&#160;&#160;&#160;&#160;&#160;&#160;&#160;&#160;&#160;&#160;&#160;&#160;&#160;&#160;&#160;&#160;&#160;&#160;&#160;&#160;&#160;&#160;</text>
<polygon fill="white" stroke="none" points="242.71,-394.74 242.71,-415.99 255.71,-415.99 255.71,-394.74 242.71,-394.74"/>
<text text-anchor="start" x="244.71" y="-402.59" font-family="sans-serif" font-size="12.00">D</text>
<polygon fill="white" stroke="none" points="167.51,-609.01 167.51,-630.26 180.51,-630.26 180.51,-609.01 167.51,-609.01"/>
<text text-anchor="start" x="169.51" y="-616.86" font-family="sans-serif" font-size="12.00">U</text>
</g>
<!-- DataSecurityAndPrivacyContext -->
<g id="node7" class="node">
<title>DataSecurityAndPrivacyContext</title>
<polygon fill="none" stroke="black" stroke-width="2" points="842.33,-626.12 855.13,-626.74 867.73,-627.48 880.08,-628.34 892.13,-629.32 903.82,-630.41 915.12,-631.61 925.98,-632.92 936.35,-634.33 946.2,-635.84 955.49,-637.44 964.19,-639.13 972.27,-640.9 979.71,-642.75 986.47,-644.68 992.54,-646.67 997.92,-648.73 1002.58,-650.85 1006.51,-653.02 1009.73,-655.23 1012.22,-657.49 1013.99,-659.78 1015.05,-662.1 1015.4,-664.44 1015.07,-666.8 1014.06,-669.17 1012.41,-671.54 1010.12,-673.91 1007.22,-676.28 1003.74,-678.63 999.71,-680.96 995.16,-683.27 990.11,-685.55 984.6,-687.79 978.65,-689.98 972.31,-692.13 965.6,-694.23 958.55,-696.27 951.2,-698.24 943.58,-700.15 935.71,-701.98 927.62,-703.73 919.35,-705.4 910.92,-706.98 902.36,-708.47 893.68,-709.86 884.91,-711.16 876.08,-712.34 867.19,-713.42 858.26,-714.4 849.32,-715.25 840.38,-715.99 831.44,-716.62 822.52,-717.12 813.62,-717.5 804.77,-717.76 795.96,-717.89 787.2,-717.9 778.5,-717.78 769.86,-717.53 761.29,-717.16 752.8,-716.66 744.39,-716.03 736.07,-715.29 727.83,-714.42 719.7,-713.43 711.67,-712.32 703.76,-711.1 695.98,-709.76 688.33,-708.32 680.83,-706.77 673.49,-705.12 666.33,-703.37 659.36,-701.53 652.59,-699.6 646.06,-697.6 639.77,-695.51 633.75,-693.36 628.02,-691.14 622.6,-688.86 617.52,-686.53 612.81,-684.16 608.48,-681.74 604.56,-679.3 601.08,-676.83 598.06,-674.35 595.53,-671.86 593.51,-669.36 592.02,-666.87 591.09,-664.39 590.74,-661.93 590.99,-659.5 591.85,-657.11 593.34,-654.75 595.47,-652.44 598.25,-650.19 601.69,-648 605.79,-645.88 610.55,-643.83 615.97,-641.86 622.05,-639.98 628.77,-638.19 636.12,-636.5 644.09,-634.9 652.66,-633.41 661.8,-632.03 671.48,-630.77 681.68,-629.62 692.36,-628.59 703.48,-627.68 715.02,-626.9 726.91,-626.24 739.12,-625.71 751.61,-625.31 764.31,-625.04 777.19,-624.89 790.19,-624.88 803.26,-625 816.34,-625.24 829.38,-625.62 842.33,-626.12"/>
<text text-anchor="middle" x="798.52" y="-667.59" font-family="sans-serif" font-size="16.00">DataSecurityAndPrivacyContext</text>
</g>
<!-- DataSecurityAndPrivacyContext&#45;&gt;AIModelDevelopmentContext -->
<g id="edge7" class="edge">
<title>DataSecurityAndPrivacyContext&#45;&gt;AIModelDevelopmentContext</title>
<path fill="none" stroke="black" stroke-width="2" d="M758.08,-624.85C740.07,-604.5 718.96,-580.64 701.17,-560.53"/>
<text text-anchor="middle" x="794.6" y="-590.38" font-family="sans-serif" font-size="12.00"> &#160;&#160;&#160;&#160;&#160;&#160;&#160;&#160;&#160;&#160;&#160;&#160;&#160;&#160;&#160;&#160;&#160;&#160;&#160;&#160;&#160;&#160;&#160;&#160;&#160;&#160;&#160;&#160;&#160;&#160;&#160;&#160;&#160;&#160;&#160;&#160;&#160;&#160;&#160;</text>
<polygon fill="white" stroke="none" points="694.67,-549.91 694.67,-571.16 707.67,-571.16 707.67,-549.91 694.67,-549.91"/>
<text text-anchor="start" x="696.67" y="-557.76" font-family="sans-serif" font-size="12.00">D</text>
<polygon fill="white" stroke="none" points="751.58,-614.22 751.58,-635.47 764.58,-635.47 764.58,-614.22 751.58,-614.22"/>
<text text-anchor="start" x="753.58" y="-622.07" font-family="sans-serif" font-size="12.00">U</text>
</g>
<!-- DataSecurityAndPrivacyContext&#45;&gt;DataCanonizationContext -->
<g id="edge10" class="edge">
<title>DataSecurityAndPrivacyContext&#45;&gt;DataCanonizationContext</title>
<path fill="none" stroke="black" stroke-width="2" d="M844.1,-625.89C849.77,-618.34 854.85,-610.2 858.52,-601.78 889.11,-531.44 896.22,-503.51 874.52,-429.95 872.41,-422.79 869.29,-415.68 865.66,-408.91"/>
<text text-anchor="middle" x="947.08" y="-513.09" font-family="sans-serif" font-size="12.00"> &#160;&#160;&#160;&#160;&#160;&#160;&#160;&#160;&#160;&#160;&#160;&#160;&#160;&#160;&#160;&#160;&#160;&#160;&#160;&#160;&#160;&#160;&#160;&#160;&#160;&#160;&#160;&#160;&#160;&#160;&#160;&#160;&#160;&#160;&#160;&#160;&#160;&#160;&#160;</text>
<polygon fill="white" stroke="none" points="859.16,-398.28 859.16,-419.53 872.16,-419.53 872.16,-398.28 859.16,-398.28"/>
<text text-anchor="start" x="861.16" y="-406.13" font-family="sans-serif" font-size="12.00">D</text>
<polygon fill="white" stroke="none" points="837.6,-615.27 837.6,-636.52 850.6,-636.52 850.6,-615.27 837.6,-615.27"/>
<text text-anchor="start" x="839.6" y="-623.12" font-family="sans-serif" font-size="12.00">U</text>
</g>
<!-- DataSecurityAndPrivacyContext&#45;&gt;DataAnonimizationContext -->
<g id="edge9" class="edge">
<title>DataSecurityAndPrivacyContext&#45;&gt;DataAnonimizationContext</title>
<path fill="none" stroke="black" stroke-width="2" d="M934.9,-633.82C988.07,-610.5 1036.52,-573.67 1036.52,-516.86 1036.52,-516.86 1036.52,-516.86 1036.52,-205.3 1036.52,-166.36 1013.71,-129.41 990.1,-101.59"/>
<text text-anchor="middle" x="1096.52" y="-358.09" font-family="sans-serif" font-size="12.00"> &#160;&#160;&#160;&#160;&#160;&#160;&#160;&#160;&#160;&#160;&#160;&#160;&#160;&#160;&#160;&#160;&#160;&#160;&#160;&#160;&#160;&#160;&#160;&#160;&#160;&#160;&#160;&#160;&#160;&#160;&#160;&#160;&#160;&#160;&#160;&#160;&#160;&#160;&#160;</text>
<polygon fill="white" stroke="none" points="983.6,-90.96 983.6,-112.21 996.6,-112.21 996.6,-90.96 983.6,-90.96"/>
<text text-anchor="start" x="985.6" y="-98.81" font-family="sans-serif" font-size="12.00">D</text>
<polygon fill="white" stroke="none" points="928.4,-623.19 928.4,-644.44 941.4,-644.44 941.4,-623.19 928.4,-623.19"/>
<text text-anchor="start" x="930.4" y="-631.04" font-family="sans-serif" font-size="12.00">U</text>
</g>
<!-- DataSecurityAndPrivacyContext&#45;&gt;InvestigationAndDevelopmentContext -->
<g id="edge8" class="edge">
<title>DataSecurityAndPrivacyContext&#45;&gt;InvestigationAndDevelopmentContext</title>
<path fill="none" stroke="black" stroke-width="2" d="M599.32,-648.92C492.93,-632.92 377.09,-606.79 343.52,-566.53 307.65,-523.51 312.51,-455.95 321.56,-410.34"/>
<text text-anchor="middle" x="403.52" y="-513.09" font-family="sans-serif" font-size="12.00"> &#160;&#160;&#160;&#160;&#160;&#160;&#160;&#160;&#160;&#160;&#160;&#160;&#160;&#160;&#160;&#160;&#160;&#160;&#160;&#160;&#160;&#160;&#160;&#160;&#160;&#160;&#160;&#160;&#160;&#160;&#160;&#160;&#160;&#160;&#160;&#160;&#160;&#160;&#160;</text>
<polygon fill="white" stroke="none" points="315.06,-399.72 315.06,-420.97 328.06,-420.97 328.06,-399.72 315.06,-399.72"/>
<text text-anchor="start" x="317.06" y="-407.57" font-family="sans-serif" font-size="12.00">D</text>
<polygon fill="white" stroke="none" points="592.82,-638.3 592.82,-659.55 605.82,-659.55 605.82,-638.3 592.82,-638.3"/>
<text text-anchor="start" x="594.82" y="-646.15" font-family="sans-serif" font-size="12.00">U</text>
</g>
<!-- SalesManagementContext -->
<g id="node8" class="node">
<title>SalesManagementContext</title>
<polygon fill="none" stroke="black" stroke-width="2" points="55.8,-797.24 63.09,-794.94 70.7,-792.74 78.58,-790.64 86.71,-788.67 95.05,-786.82 103.59,-785.1 112.28,-783.52 121.1,-782.1 130.02,-780.82 139,-779.71 148.03,-778.76 157.07,-777.98 166.09,-777.36 175.08,-776.92 184,-776.65 192.83,-776.56 201.56,-776.63 210.15,-776.88 218.59,-777.3 226.87,-777.89 234.95,-778.64 242.83,-779.55 250.5,-780.61 257.93,-781.82 265.13,-783.18 272.06,-784.66 278.73,-786.28 285.13,-788.02 291.24,-789.86 297.06,-791.81 302.59,-793.86 307.81,-795.99 312.72,-798.2 317.31,-800.47 321.59,-802.81 325.55,-805.19 329.17,-807.61 332.47,-810.06 335.43,-812.54 338.05,-815.03 340.33,-817.52 342.27,-820.01 343.85,-822.49 345.09,-824.96 345.96,-827.4 346.48,-829.81 346.64,-832.18 346.43,-834.51 345.86,-836.8 344.91,-839.04 343.58,-841.22 341.88,-843.34 339.81,-845.39 337.35,-847.39 334.5,-849.31 331.28,-851.17 327.67,-852.96 323.68,-854.67 319.32,-856.3 314.57,-857.87 309.46,-859.35 303.97,-860.76 298.12,-862.09 291.92,-863.35 285.38,-864.52 278.5,-865.62 271.3,-866.63 263.79,-867.57 255.98,-868.42 247.9,-869.2 239.57,-869.89 230.99,-870.5 222.2,-871.03 213.21,-871.47 204.06,-871.83 194.76,-872.1 185.35,-872.28 175.85,-872.37 166.29,-872.36 156.71,-872.27 147.14,-872.08 137.6,-871.79 128.13,-871.4 118.77,-870.91 109.54,-870.32 100.49,-869.63 91.64,-868.83 83.03,-867.92 74.69,-866.91 66.65,-865.79 58.95,-864.56 51.61,-863.23 44.66,-861.78 38.13,-860.23 32.06,-858.57 26.45,-856.81 21.33,-854.95 16.72,-852.99 12.65,-850.93 9.12,-848.78 6.15,-846.54 3.75,-844.23 1.94,-841.83 0.7,-839.37 0.06,-836.84 0,-834.26 0.53,-831.62 1.65,-828.95 3.34,-826.25 5.59,-823.52 8.41,-820.78 11.76,-818.04 15.64,-815.31 20.03,-812.59 24.91,-809.9 30.25,-807.25 36.04,-804.65 42.24,-802.11 48.84,-799.64 55.8,-797.24"/>
<text text-anchor="middle" x="183.52" y="-824.23" font-family="sans-serif" font-size="16.00">SalesManagementContext</text>
</g>
<!-- SalesManagementContext&#45;&gt;APIManagementContext -->
<g id="edge11" class="edge">
<title>SalesManagementContext&#45;&gt;APIManagementContext</title>
<path fill="none" stroke="black" stroke-width="2" d="M183.52,-776.54C183.52,-757.25 183.52,-735.44 183.52,-716.79"/>
<text text-anchor="middle" x="243.52" y="-747.16" font-family="sans-serif" font-size="12.00"> &#160;&#160;&#160;&#160;&#160;&#160;&#160;&#160;&#160;&#160;&#160;&#160;&#160;&#160;&#160;&#160;&#160;&#160;&#160;&#160;&#160;&#160;&#160;&#160;&#160;&#160;&#160;&#160;&#160;&#160;&#160;&#160;&#160;&#160;&#160;&#160;&#160;&#160;&#160;</text>
<polygon fill="white" stroke="none" points="177.02,-706.16 177.02,-727.41 190.02,-727.41 190.02,-706.16 177.02,-706.16"/>
<text text-anchor="start" x="179.02" y="-714.01" font-family="sans-serif" font-size="12.00">D</text>
<polygon fill="white" stroke="none" points="177.02,-765.92 177.02,-787.17 190.02,-787.17 190.02,-765.92 177.02,-765.92"/>
<text text-anchor="start" x="179.02" y="-773.77" font-family="sans-serif" font-size="12.00">U</text>
</g>
</g>
</svg>
