<svg width="2000px" height="1020px"
 viewBox="0.00 0.00 1118.46 570.36" xmlns="http://www.w3.org/2000/svg" xmlns:xlink="http://www.w3.org/1999/xlink">
<g id="graph0" class="graph" transform="scale(1.0 1.0) rotate(0) translate(4 566.36)">
<title>ContextMapGraph</title>
<polygon fill="white" stroke="none" points="-4,4 -4,-566.36 1114.46,-566.36 1114.46,4 -4,4"/>
<!-- AIModelDevelopmentAndInvestigationContext -->
<g id="node1" class="node">
<title>AIModelDevelopmentAndInvestigationContext</title>
<polygon fill="none" stroke="black" stroke-width="2" points="403.33,-351.86 404.86,-348.83 407.16,-345.83 410.2,-342.88 414,-339.98 418.53,-337.14 423.78,-334.39 429.74,-331.72 436.4,-329.15 443.73,-326.7 451.71,-324.36 460.33,-322.14 469.55,-320.06 479.36,-318.12 489.73,-316.32 500.62,-314.68 512.01,-313.19 523.87,-311.85 536.17,-310.68 548.86,-309.67 561.92,-308.82 575.31,-308.13 589,-307.6 602.94,-307.23 617.1,-307.02 631.44,-306.97 645.92,-307.06 660.49,-307.3 675.13,-307.68 689.79,-308.2 704.43,-308.84 719.01,-309.61 733.49,-310.5 747.83,-311.5 761.98,-312.61 775.93,-313.81 789.61,-315.1 803,-316.48 816.06,-317.94 828.76,-319.47 841.05,-321.06 852.91,-322.71 864.3,-324.42 875.2,-326.17 885.56,-327.97 895.37,-329.8 904.6,-331.67 913.21,-333.56 921.2,-335.48 928.53,-337.43 935.18,-339.39 941.14,-341.36 946.4,-343.35 950.93,-345.35 954.72,-347.35 957.77,-349.37 960.06,-351.38 961.59,-353.41 962.36,-355.43 962.36,-357.45 961.59,-359.48 960.06,-361.5 957.77,-363.52 954.72,-365.53 950.93,-367.54 946.4,-369.53 941.14,-371.52 935.18,-373.5 928.53,-375.46 921.2,-377.4 913.21,-379.32 904.6,-381.21 895.37,-383.08 885.56,-384.92 875.2,-386.71 864.3,-388.47 852.91,-390.17 841.05,-391.82 828.76,-393.42 816.06,-394.95 803,-396.4 789.61,-397.78 775.93,-399.07 761.98,-400.28 747.83,-401.38 733.49,-402.38 719.01,-403.27 704.43,-404.04 689.79,-404.69 675.13,-405.2 660.49,-405.58 645.92,-405.82 631.44,-405.91 617.1,-405.86 602.94,-405.65 589,-405.28 575.31,-404.75 561.92,-404.07 548.86,-403.22 536.17,-402.2 523.87,-401.03 512.01,-399.7 500.62,-398.21 489.73,-396.56 479.36,-394.76 469.55,-392.82 460.33,-390.74 451.71,-388.53 443.73,-386.19 436.4,-383.73 429.74,-381.16 423.78,-378.5 418.53,-375.74 414,-372.91 410.2,-370.01 407.16,-367.05 404.86,-364.05 403.33,-361.02 402.56,-357.97 402.56,-354.91 403.33,-351.86"/>
<text text-anchor="middle" x="682.46" y="-352.49" font-family="sans-serif" font-size="16.00">AIModelDevelopmentAndInvestigationContext</text>
</g>
<!-- DataCanonizationContext -->
<g id="node2" class="node">
<title>DataCanonizationContext</title>
<polygon fill="none" stroke="black" stroke-width="2" points="733.3,-159.11 743.79,-159.99 754.08,-160.98 764.11,-162.09 773.86,-163.31 783.29,-164.64 792.34,-166.06 801,-167.58 809.21,-169.2 816.96,-170.9 824.22,-172.68 830.95,-174.54 837.14,-176.47 842.76,-178.47 847.8,-180.52 852.25,-182.63 856.09,-184.79 859.31,-187 861.92,-189.24 863.91,-191.51 865.28,-193.8 866.04,-196.12 866.19,-198.45 865.75,-200.79 864.73,-203.14 863.15,-205.47 861.02,-207.81 858.37,-210.12 855.21,-212.42 851.56,-214.69 847.47,-216.94 842.94,-219.14 838.01,-221.31 832.7,-223.43 827.05,-225.5 821.08,-227.51 814.82,-229.46 808.3,-231.35 801.54,-233.17 794.58,-234.91 787.43,-236.58 780.14,-238.16 772.71,-239.65 765.17,-241.06 757.55,-242.37 749.87,-243.58 742.15,-244.69 734.4,-245.69 726.64,-246.59 718.88,-247.37 711.15,-248.05 703.45,-248.6 695.79,-249.04 688.18,-249.36 680.64,-249.56 673.17,-249.64 665.77,-249.59 658.46,-249.42 651.23,-249.12 644.1,-248.7 637.06,-248.16 630.13,-247.49 623.3,-246.7 616.59,-245.78 609.99,-244.75 603.51,-243.6 597.16,-242.33 590.94,-240.96 584.86,-239.47 578.93,-237.87 573.15,-236.18 567.54,-234.39 562.11,-232.5 556.87,-230.53 551.83,-228.47 547,-226.34 542.41,-224.13 538.06,-221.86 533.97,-219.54 530.16,-217.16 526.65,-214.73 523.46,-212.27 520.6,-209.78 518.1,-207.27 515.97,-204.74 514.23,-202.2 512.9,-199.67 511.99,-197.14 511.54,-194.63 511.54,-192.14 512.02,-189.69 512.99,-187.27 514.46,-184.9 516.44,-182.59 518.94,-180.33 521.97,-178.14 525.53,-176.03 529.62,-174 534.24,-172.06 539.38,-170.21 545.05,-168.45 551.22,-166.81 557.89,-165.27 565.05,-163.84 572.66,-162.53 580.73,-161.34 589.21,-160.28 598.08,-159.34 607.32,-158.53 616.9,-157.85 626.77,-157.3 636.9,-156.89 647.27,-156.61 657.81,-156.46 668.51,-156.45 679.3,-156.57 690.16,-156.82 701.03,-157.2 711.88,-157.71 722.65,-158.35 733.3,-159.11"/>
<text text-anchor="middle" x="682.46" y="-199.52" font-family="sans-serif" font-size="16.00">DataCanonizationContext</text>
</g>
<!-- AIModelDevelopmentAndInvestigationContext&#45;&gt;DataCanonizationContext -->
<g id="edge1" class="edge">
<title>AIModelDevelopmentAndInvestigationContext&#45;&gt;DataCanonizationContext</title>
<path fill="none" stroke="black" stroke-width="2" d="M682.46,-307.67C682.46,-289.19 682.46,-268.13 682.46,-249.87"/>
<text text-anchor="middle" x="742.46" y="-277.57" font-family="sans-serif" font-size="12.00"> &#160;&#160;&#160;&#160;&#160;&#160;&#160;&#160;&#160;&#160;&#160;&#160;&#160;&#160;&#160;&#160;&#160;&#160;&#160;&#160;&#160;&#160;&#160;&#160;&#160;&#160;&#160;&#160;&#160;&#160;&#160;&#160;&#160;&#160;&#160;&#160;&#160;&#160;&#160;</text>
<polygon fill="white" stroke="none" points="675.96,-239.25 675.96,-260.5 688.96,-260.5 688.96,-239.25 675.96,-239.25"/>
<text text-anchor="start" x="677.96" y="-247.1" font-family="sans-serif" font-size="12.00">D</text>
<polygon fill="white" stroke="none" points="675.96,-297.05 675.96,-318.3 688.96,-318.3 688.96,-297.05 675.96,-297.05"/>
<text text-anchor="start" x="677.96" y="-304.9" font-family="sans-serif" font-size="12.00">U</text>
</g>
<!-- SaludTechPlatformDevelopmentContext -->
<g id="node3" class="node">
<title>SaludTechPlatformDevelopmentContext</title>
<polygon fill="none" stroke="black" stroke-width="2" points="238.75,-9.82 252.43,-8.24 266.37,-6.79 280.51,-5.46 294.79,-4.26 309.17,-3.2 323.58,-2.29 337.98,-1.52 352.31,-0.91 366.53,-0.45 380.58,-0.14 394.42,0 408,-0.02 421.29,-0.19 434.25,-0.53 446.84,-1.02 459.03,-1.68 470.78,-2.48 482.08,-3.45 492.9,-4.56 503.21,-5.81 513.01,-7.2 522.27,-8.73 530.99,-10.39 539.14,-12.17 546.74,-14.06 553.77,-16.06 560.23,-18.15 566.12,-20.34 571.44,-22.62 576.2,-24.96 580.41,-27.37 584.05,-29.84 587.16,-32.35 589.72,-34.9 591.76,-37.48 593.27,-40.08 594.28,-42.69 594.78,-45.3 594.8,-47.9 594.32,-50.49 593.38,-53.05 591.96,-55.58 590.09,-58.08 587.77,-60.52 585,-62.92 581.79,-65.25 578.15,-67.53 574.07,-69.73 569.57,-71.85 564.65,-73.9 559.31,-75.86 553.55,-77.73 547.37,-79.52 540.78,-81.21 533.78,-82.8 526.37,-84.29 518.56,-85.69 510.35,-86.98 501.74,-88.17 492.74,-89.25 483.35,-90.24 473.59,-91.11 463.46,-91.89 452.98,-92.56 442.16,-93.13 431.01,-93.59 419.55,-93.95 407.79,-94.21 395.77,-94.36 383.51,-94.42 371.03,-94.38 358.35,-94.24 345.52,-94 332.56,-93.66 319.52,-93.23 306.42,-92.7 293.3,-92.08 280.22,-91.37 267.21,-90.56 254.31,-89.66 241.58,-88.68 229.05,-87.6 216.79,-86.43 204.83,-85.18 193.22,-83.84 182.01,-82.42 171.26,-80.92 161,-79.33 151.28,-77.67 142.16,-75.92 133.66,-74.11 125.84,-72.22 118.72,-70.26 112.35,-68.23 106.77,-66.15 101.99,-64 98.04,-61.8 94.96,-59.54 92.75,-57.24 91.44,-54.9 91.03,-52.53 91.53,-50.12 92.94,-47.69 95.26,-45.24 98.49,-42.78 102.61,-40.32 107.61,-37.86 113.47,-35.42 120.17,-32.99 127.67,-30.58 135.95,-28.22 144.98,-25.89 154.71,-23.62 165.1,-21.4 176.11,-19.26 187.7,-17.19 199.8,-15.2 212.38,-13.3 225.38,-11.51 238.75,-9.82"/>
<text text-anchor="middle" x="362.46" y="-46.04" font-family="sans-serif" font-size="16.00">SaludTechPlatformDevelopmentContext</text>
</g>
<!-- DataCanonizationContext&#45;&gt;SaludTechPlatformDevelopmentContext -->
<g id="edge2" class="edge">
<title>DataCanonizationContext&#45;&gt;SaludTechPlatformDevelopmentContext</title>
<path fill="none" stroke="black" stroke-width="2" d="M592.05,-159.67C547.97,-138.8 495.14,-113.79 451.27,-93.03"/>
<text text-anchor="middle" x="592.06" y="-123.83" font-family="sans-serif" font-size="12.00"> &#160;&#160;&#160;&#160;&#160;&#160;&#160;&#160;&#160;&#160;&#160;&#160;&#160;&#160;&#160;&#160;&#160;&#160;&#160;&#160;&#160;&#160;&#160;&#160;&#160;&#160;&#160;&#160;&#160;&#160;&#160;&#160;&#160;&#160;&#160;&#160;&#160;&#160;&#160;</text>
<polygon fill="white" stroke="none" points="444.77,-82.41 444.77,-103.66 457.77,-103.66 457.77,-82.41 444.77,-82.41"/>
<text text-anchor="start" x="446.77" y="-90.26" font-family="sans-serif" font-size="12.00">D</text>
<polygon fill="white" stroke="none" points="585.55,-149.05 585.55,-170.3 598.55,-170.3 598.55,-149.05 585.55,-149.05"/>
<text text-anchor="start" x="587.55" y="-156.9" font-family="sans-serif" font-size="12.00">U</text>
</g>
<!-- DataAnonimizationContext -->
<g id="node4" class="node">
<title>DataAnonimizationContext</title>
<polygon fill="none" stroke="black" stroke-width="2" points="211.91,-402.71 200.53,-403.09 189.15,-403.34 177.84,-403.46 166.64,-403.45 155.59,-403.3 144.74,-403.02 134.12,-402.61 123.78,-402.06 113.75,-401.38 104.07,-400.57 94.78,-399.64 85.89,-398.57 77.45,-397.38 69.47,-396.07 61.97,-394.65 54.98,-393.11 48.52,-391.46 42.58,-389.71 37.19,-387.86 32.35,-385.91 28.07,-383.88 24.34,-381.77 21.17,-379.58 18.55,-377.33 16.48,-375.01 14.93,-372.64 13.92,-370.22 13.42,-367.77 13.41,-365.28 13.89,-362.77 14.84,-360.24 16.23,-357.71 18.05,-355.17 20.29,-352.64 22.91,-350.13 25.9,-347.64 29.25,-345.18 32.93,-342.76 36.91,-340.38 41.19,-338.05 45.75,-335.78 50.56,-333.58 55.62,-331.44 60.9,-329.39 66.39,-327.41 72.08,-325.53 77.96,-323.74 84.01,-322.04 90.22,-320.45 96.59,-318.96 103.1,-317.58 109.76,-316.31 116.54,-315.16 123.46,-314.13 130.49,-313.22 137.64,-312.42 144.9,-311.76 152.27,-311.21 159.75,-310.79 167.31,-310.49 174.98,-310.32 182.72,-310.27 190.55,-310.35 198.45,-310.55 206.42,-310.87 214.44,-311.31 222.51,-311.87 230.61,-312.54 238.74,-313.33 246.87,-314.22 254.98,-315.23 263.08,-316.34 271.12,-317.55 279.1,-318.86 287,-320.26 294.78,-321.76 302.42,-323.34 309.91,-325 317.2,-326.75 324.28,-328.56 331.11,-330.45 337.67,-332.4 343.92,-334.42 349.85,-336.49 355.4,-338.61 360.57,-340.77 365.31,-342.98 369.6,-345.22 373.42,-347.49 376.73,-349.79 379.51,-352.11 381.74,-354.44 383.4,-356.78 384.47,-359.12 384.92,-361.46 384.76,-363.79 383.97,-366.11 382.53,-368.41 380.45,-370.68 377.72,-372.92 374.34,-375.12 370.32,-377.28 365.66,-379.39 360.38,-381.45 354.49,-383.44 348.01,-385.37 340.96,-387.23 333.36,-389.02 325.24,-390.72 316.63,-392.33 307.56,-393.85 298.08,-395.28 288.21,-396.6 278,-397.82 267.48,-398.93 256.7,-399.93 245.72,-400.81 234.56,-401.57 223.27,-402.2 211.91,-402.71"/>
<text text-anchor="middle" x="192.46" y="-352.49" font-family="sans-serif" font-size="16.00">DataAnonimizationContext</text>
</g>
<!-- DataAnonimizationContext&#45;&gt;DataCanonizationContext -->
<g id="edge3" class="edge">
<title>DataAnonimizationContext&#45;&gt;DataCanonizationContext</title>
<path fill="none" stroke="black" stroke-width="2" d="M299.69,-322.4C381.65,-297.15 494.1,-262.51 575.89,-237.31"/>
<text text-anchor="middle" x="491.9" y="-277.57" font-family="sans-serif" font-size="12.00">Shared Kernel</text>
</g>
<!-- DataIngestionContext -->
<g id="node5" class="node">
<title>DataIngestionContext</title>
<polygon fill="none" stroke="black" stroke-width="2" points="340.23,-513.72 339.75,-516.76 338.88,-519.77 337.6,-522.74 335.92,-525.66 333.84,-528.52 331.38,-531.3 328.53,-534 325.3,-536.6 321.71,-539.1 317.76,-541.49 313.46,-543.75 308.82,-545.89 303.86,-547.88 298.59,-549.74 293.03,-551.45 287.18,-553 281.08,-554.4 274.72,-555.65 268.14,-556.73 261.34,-557.66 254.35,-558.42 247.19,-559.03 239.88,-559.48 232.43,-559.77 224.87,-559.91 217.22,-559.9 209.51,-559.74 201.74,-559.45 193.95,-559.02 186.16,-558.46 178.38,-557.77 170.64,-556.97 162.97,-556.05 155.38,-555.03 147.89,-553.91 140.52,-552.69 133.31,-551.39 126.25,-550.01 119.39,-548.56 112.73,-547.04 106.29,-545.46 100.09,-543.82 94.14,-542.13 88.48,-540.39 83.1,-538.62 78.03,-536.81 73.27,-534.96 68.84,-533.09 64.76,-531.19 61.03,-529.27 57.67,-527.33 54.68,-525.37 52.07,-523.4 49.84,-521.42 48.01,-519.43 46.58,-517.42 45.54,-515.41 44.91,-513.39 44.69,-511.37 44.87,-509.34 45.45,-507.31 46.44,-505.28 47.82,-503.25 49.6,-501.23 51.77,-499.2 54.32,-497.19 57.25,-495.18 60.54,-493.18 64.19,-491.2 68.19,-489.23 72.53,-487.29 77.19,-485.37 82.16,-483.48 87.43,-481.62 92.98,-479.81 98.8,-478.04 104.87,-476.32 111.18,-474.65 117.71,-473.05 124.44,-471.52 131.35,-470.07 138.42,-468.69 145.64,-467.41 152.99,-466.23 160.45,-465.14 167.98,-464.17 175.59,-463.32 183.24,-462.59 190.92,-461.99 198.6,-461.52 206.26,-461.2 213.89,-461.02 221.46,-460.99 228.95,-461.12 236.35,-461.41 243.63,-461.86 250.77,-462.47 257.75,-463.24 264.56,-464.18 271.18,-465.28 277.58,-466.54 283.76,-467.97 289.69,-469.55 295.35,-471.28 300.74,-473.17 305.84,-475.2 310.63,-477.36 315.1,-479.65 319.24,-482.06 323.04,-484.59 326.48,-487.22 329.56,-489.94 332.26,-492.75 334.59,-495.63 336.52,-498.56 338.06,-501.55 339.21,-504.57 339.95,-507.61 340.29,-510.67 340.23,-513.72"/>
<text text-anchor="middle" x="192.46" y="-506.81" font-family="sans-serif" font-size="16.00">DataIngestionContext</text>
</g>
<!-- DataIngestionContext&#45;&gt;DataAnonimizationContext -->
<g id="edge4" class="edge">
<title>DataIngestionContext&#45;&gt;DataAnonimizationContext</title>
<path fill="none" stroke="black" stroke-width="2" d="M192.46,-461.57C192.46,-443.09 192.46,-422.06 192.46,-403.76"/>
<text text-anchor="middle" x="232.21" y="-429.76" font-family="sans-serif" font-size="12.00">Shared Kernel</text>
</g>
<!-- DataSecurityAndPrivacyContext -->
<g id="node6" class="node">
<title>DataSecurityAndPrivacyContext</title>
<polygon fill="none" stroke="black" stroke-width="2" points="488.57,-522.3 485.14,-519.37 482.26,-516.42 479.96,-513.47 478.24,-510.53 477.11,-507.61 476.58,-504.72 476.66,-501.88 477.35,-499.09 478.65,-496.36 480.56,-493.71 483.08,-491.14 486.21,-488.66 489.93,-486.28 494.24,-484 499.12,-481.84 504.57,-479.79 510.56,-477.86 517.08,-476.06 524.1,-474.39 531.61,-472.85 539.58,-471.44 547.98,-470.17 556.79,-469.04 565.97,-468.03 575.5,-467.17 585.35,-466.43 595.48,-465.83 605.85,-465.36 616.44,-465.01 627.21,-464.79 638.11,-464.68 649.13,-464.69 660.21,-464.82 671.33,-465.05 682.45,-465.39 693.52,-465.83 704.53,-466.37 715.43,-466.99 726.19,-467.71 736.77,-468.51 747.16,-469.39 757.3,-470.34 767.19,-471.37 776.78,-472.47 786.05,-473.64 794.98,-474.87 803.55,-476.16 811.72,-477.51 819.49,-478.92 826.84,-480.39 833.74,-481.9 840.18,-483.47 846.16,-485.09 851.65,-486.76 856.66,-488.48 861.16,-490.25 865.16,-492.06 868.65,-493.92 871.63,-495.82 874.09,-497.77 876.03,-499.75 877.46,-501.78 878.38,-503.84 878.79,-505.95 878.69,-508.08 878.09,-510.25 876.99,-512.44 875.41,-514.66 873.35,-516.9 870.82,-519.16 867.83,-521.43 864.39,-523.71 860.51,-525.99 856.2,-528.26 851.48,-530.53 846.35,-532.78 840.83,-535.01 834.93,-537.2 828.66,-539.36 822.04,-541.47 815.09,-543.52 807.82,-545.52 800.24,-547.44 792.37,-549.28 784.22,-551.03 775.82,-552.69 767.18,-554.24 758.31,-555.68 749.24,-557 739.99,-558.18 730.56,-559.24 720.99,-560.15 711.3,-560.91 701.49,-561.51 691.6,-561.96 681.65,-562.24 671.66,-562.36 661.66,-562.3 651.66,-562.07 641.69,-561.66 631.77,-561.08 621.94,-560.33 612.22,-559.4 602.63,-558.3 593.2,-557.03 583.95,-555.6 574.92,-554.01 566.12,-552.26 557.59,-550.37 549.36,-548.34 541.44,-546.17 533.87,-543.88 526.66,-541.47 519.85,-538.96 513.46,-536.36 507.51,-533.67 502.03,-530.91 497.03,-528.09 492.54,-525.21 488.57,-522.3"/>
<text text-anchor="middle" x="682.46" y="-506.81" font-family="sans-serif" font-size="16.00">DataSecurityAndPrivacyContext</text>
</g>
<!-- DataSecurityAndPrivacyContext&#45;&gt;AIModelDevelopmentAndInvestigationContext -->
<g id="edge6" class="edge">
<title>DataSecurityAndPrivacyContext&#45;&gt;AIModelDevelopmentAndInvestigationContext</title>
<path fill="none" stroke="black" stroke-width="2" d="M682.46,-465.29C682.46,-446.5 682.46,-424.58 682.46,-405.42"/>
<text text-anchor="middle" x="742.46" y="-429.76" font-family="sans-serif" font-size="12.00"> &#160;&#160;&#160;&#160;&#160;&#160;&#160;&#160;&#160;&#160;&#160;&#160;&#160;&#160;&#160;&#160;&#160;&#160;&#160;&#160;&#160;&#160;&#160;&#160;&#160;&#160;&#160;&#160;&#160;&#160;&#160;&#160;&#160;&#160;&#160;&#160;&#160;&#160;&#160;</text>
<polygon fill="white" stroke="none" points="675.96,-394.8 675.96,-416.05 688.96,-416.05 688.96,-394.8 675.96,-394.8"/>
<text text-anchor="start" x="677.96" y="-402.65" font-family="sans-serif" font-size="12.00">D</text>
<polygon fill="white" stroke="none" points="675.96,-454.67 675.96,-475.92 688.96,-475.92 688.96,-454.67 675.96,-454.67"/>
<text text-anchor="start" x="677.96" y="-462.52" font-family="sans-serif" font-size="12.00">U</text>
</g>
<!-- DataSecurityAndPrivacyContext&#45;&gt;DataCanonizationContext -->
<g id="edge7" class="edge">
<title>DataSecurityAndPrivacyContext&#45;&gt;DataCanonizationContext</title>
<path fill="none" stroke="black" stroke-width="2" d="M850.82,-486.15C897.49,-471 943.09,-446.25 971.46,-405.91 996.76,-369.94 996.83,-342.89 971.46,-306.97 939.98,-262.4 887.38,-237.09 835.62,-222.76"/>
<text text-anchor="middle" x="1050.46" y="-353.67" font-family="sans-serif" font-size="12.00"> &#160;&#160;&#160;&#160;&#160;&#160;&#160;&#160;&#160;&#160;&#160;&#160;&#160;&#160;&#160;&#160;&#160;&#160;&#160;&#160;&#160;&#160;&#160;&#160;&#160;&#160;&#160;&#160;&#160;&#160;&#160;&#160;&#160;&#160;&#160;&#160;&#160;&#160;&#160;</text>
<polygon fill="white" stroke="none" points="829.12,-212.14 829.12,-233.39 842.12,-233.39 842.12,-212.14 829.12,-212.14"/>
<text text-anchor="start" x="831.12" y="-219.99" font-family="sans-serif" font-size="12.00">D</text>
<polygon fill="white" stroke="none" points="844.32,-475.53 844.32,-496.78 857.32,-496.78 857.32,-475.53 844.32,-475.53"/>
<text text-anchor="start" x="846.32" y="-483.38" font-family="sans-serif" font-size="12.00">U</text>
</g>
<!-- DataSecurityAndPrivacyContext&#45;&gt;DataAnonimizationContext -->
<g id="edge5" class="edge">
<title>DataSecurityAndPrivacyContext&#45;&gt;DataAnonimizationContext</title>
<path fill="none" stroke="black" stroke-width="2" d="M552.12,-469.24C476.84,-445.84 382.93,-416.65 309.94,-393.96"/>
<text text-anchor="middle" x="512.15" y="-429.76" font-family="sans-serif" font-size="12.00"> &#160;&#160;&#160;&#160;&#160;&#160;&#160;&#160;&#160;&#160;&#160;&#160;&#160;&#160;&#160;&#160;&#160;&#160;&#160;&#160;&#160;&#160;&#160;&#160;&#160;&#160;&#160;&#160;&#160;&#160;&#160;&#160;&#160;&#160;&#160;&#160;&#160;&#160;&#160;</text>
<polygon fill="white" stroke="none" points="303.44,-383.34 303.44,-404.59 316.44,-404.59 316.44,-383.34 303.44,-383.34"/>
<text text-anchor="start" x="305.44" y="-391.19" font-family="sans-serif" font-size="12.00">D</text>
<polygon fill="white" stroke="none" points="545.62,-458.62 545.62,-479.87 558.62,-479.87 558.62,-458.62 545.62,-458.62"/>
<text text-anchor="start" x="547.62" y="-466.47" font-family="sans-serif" font-size="12.00">U</text>
</g>
<!-- SalesManagementContext -->
<g id="node7" class="node">
<title>SalesManagementContext</title>
<polygon fill="none" stroke="black" stroke-width="2" points="199.99,-164.15 209.33,-162.48 218.87,-160.93 228.57,-159.51 238.38,-158.22 248.28,-157.07 258.22,-156.06 268.17,-155.2 278.09,-154.49 287.95,-153.94 297.72,-153.54 307.36,-153.3 316.84,-153.23 326.13,-153.31 335.22,-153.56 344.07,-153.98 352.66,-154.55 360.96,-155.28 368.97,-156.16 376.66,-157.2 384.02,-158.39 391.03,-159.71 397.69,-161.18 403.98,-162.78 409.9,-164.5 415.45,-166.34 420.61,-168.29 425.38,-170.35 429.78,-172.49 433.78,-174.73 437.4,-177.04 440.64,-179.42 443.51,-181.86 445.99,-184.35 448.11,-186.89 449.86,-189.45 451.25,-192.04 452.29,-194.64 452.97,-197.24 453.32,-199.84 453.32,-202.43 452.99,-205 452.32,-207.54 451.34,-210.04 450.03,-212.51 448.41,-214.92 446.47,-217.27 444.21,-219.57 441.65,-221.79 438.79,-223.95 435.61,-226.03 432.13,-228.02 428.35,-229.93 424.27,-231.75 419.89,-233.49 415.21,-235.12 410.23,-236.67 404.96,-238.11 399.39,-239.46 393.54,-240.7 387.4,-241.85 380.97,-242.89 374.28,-243.84 367.31,-244.68 360.08,-245.42 352.6,-246.05 344.88,-246.59 336.93,-247.03 328.76,-247.36 320.39,-247.6 311.84,-247.74 303.13,-247.78 294.26,-247.72 285.28,-247.57 276.2,-247.32 267.04,-246.97 257.83,-246.53 248.6,-246 239.38,-245.37 230.19,-244.65 221.08,-243.84 212.07,-242.94 203.19,-241.94 194.48,-240.86 185.97,-239.69 177.7,-238.43 169.7,-237.08 162,-235.65 154.64,-234.13 147.65,-232.53 141.06,-230.85 134.9,-229.09 129.19,-227.26 123.98,-225.35 119.28,-223.37 115.11,-221.32 111.5,-219.2 108.46,-217.03 106.02,-214.8 104.19,-212.51 102.97,-210.18 102.38,-207.81 102.42,-205.4 103.1,-202.96 104.4,-200.5 106.34,-198.02 108.9,-195.54 112.08,-193.05 115.85,-190.56 120.21,-188.09 125.14,-185.64 130.62,-183.22 136.62,-180.83 143.11,-178.5 150.08,-176.21 157.49,-174 165.31,-171.85 173.5,-169.78 182.04,-167.8 190.88,-165.92 199.99,-164.15"/>
<text text-anchor="middle" x="291.46" y="-199.52" font-family="sans-serif" font-size="16.00">SalesManagementContext</text>
</g>
<!-- SalesManagementContext&#45;&gt;SaludTechPlatformDevelopmentContext -->
<g id="edge8" class="edge">
<title>SalesManagementContext&#45;&gt;SaludTechPlatformDevelopmentContext</title>
<path fill="none" stroke="black" stroke-width="2" d="M314.71,-152.87C323.57,-133.97 333.58,-112.6 342.15,-94.33"/>
<text text-anchor="middle" x="389.09" y="-123.83" font-family="sans-serif" font-size="12.00"> &#160;&#160;&#160;&#160;&#160;&#160;&#160;&#160;&#160;&#160;&#160;&#160;&#160;&#160;&#160;&#160;&#160;&#160;&#160;&#160;&#160;&#160;&#160;&#160;&#160;&#160;&#160;&#160;&#160;&#160;&#160;&#160;&#160;&#160;&#160;&#160;&#160;&#160;&#160;</text>
<polygon fill="white" stroke="none" points="335.65,-83.71 335.65,-104.96 348.65,-104.96 348.65,-83.71 335.65,-83.71"/>
<text text-anchor="start" x="337.65" y="-91.56" font-family="sans-serif" font-size="12.00">D</text>
<polygon fill="white" stroke="none" points="308.21,-142.25 308.21,-163.5 321.21,-163.5 321.21,-142.25 308.21,-142.25"/>
<text text-anchor="start" x="310.21" y="-150.1" font-family="sans-serif" font-size="12.00">U</text>
</g>
</g>
</svg>
