<svg width="2000px" height="206px"
 viewBox="0.00 0.00 3762.01 386.87" xmlns="http://www.w3.org/2000/svg" xmlns:xlink="http://www.w3.org/1999/xlink">
<g id="graph0" class="graph" transform="scale(1.0 1.0) rotate(0) translate(4 382.87)">
<title>ContextMapGraph</title>
<polygon fill="white" stroke="none" points="-4,4 -4,-382.87 3758.01,-382.87 3758.01,4 -4,4"/>
<!-- AIModelDevelopmentContext -->
<g id="node1" class="node">
<title>AIModelDevelopmentContext</title>
<polygon fill="none" stroke="black" stroke-width="2" points="134.33,-371.39 123.3,-370.45 112.51,-369.41 102.01,-368.27 91.84,-367.04 82.05,-365.71 72.66,-364.3 63.72,-362.8 55.27,-361.23 47.34,-359.58 39.95,-357.87 33.13,-356.09 26.91,-354.26 21.3,-352.37 16.33,-350.44 12.01,-348.47 8.34,-346.46 5.34,-344.42 3.01,-342.35 1.34,-340.26 0.34,-338.16 0,-336.05 0.3,-333.93 1.25,-331.81 2.81,-329.7 4.97,-327.6 7.71,-325.51 11.02,-323.44 14.86,-321.4 19.21,-319.38 24.04,-317.4 29.32,-315.46 35.02,-313.56 41.11,-311.71 47.57,-309.9 54.35,-308.16 61.44,-306.47 68.79,-304.84 76.37,-303.28 84.16,-301.79 92.13,-300.37 100.24,-299.03 108.48,-297.78 116.81,-296.6 125.21,-295.51 133.66,-294.52 142.14,-293.61 150.62,-292.8 159.09,-292.09 167.53,-291.48 175.93,-290.97 184.27,-290.57 192.54,-290.27 200.73,-290.08 208.83,-290 216.83,-290.03 224.72,-290.17 232.5,-290.42 240.16,-290.78 247.69,-291.26 255.1,-291.85 262.37,-292.55 269.5,-293.36 276.49,-294.27 283.33,-295.3 290.02,-296.43 296.55,-297.66 302.92,-298.99 309.11,-300.42 315.13,-301.95 320.95,-303.56 326.58,-305.26 332,-307.05 337.21,-308.91 342.18,-310.84 346.9,-312.84 351.37,-314.9 355.55,-317.02 359.45,-319.18 363.04,-321.39 366.3,-323.64 369.21,-325.91 371.76,-328.21 373.93,-330.52 375.7,-332.85 377.05,-335.17 377.96,-337.49 378.41,-339.79 378.39,-342.08 377.89,-344.33 376.88,-346.56 375.36,-348.74 373.31,-350.87 370.72,-352.94 367.59,-354.96 363.92,-356.9 359.69,-358.77 354.91,-360.56 349.59,-362.26 343.72,-363.87 337.32,-365.39 330.39,-366.8 322.95,-368.11 315.02,-369.31 306.62,-370.4 297.77,-371.37 288.49,-372.23 278.82,-372.96 268.79,-373.57 258.42,-374.06 247.77,-374.43 236.86,-374.67 225.73,-374.79 214.43,-374.78 203.01,-374.65 191.5,-374.4 179.95,-374.03 168.42,-373.54 156.94,-372.93 145.56,-372.22 134.33,-371.39"/>
<text text-anchor="middle" x="197.59" y="-324.85" font-family="sans-serif" font-size="16.00">AIModelDevelopmentContext</text>
</g>
<!-- CustomerAndRelationshipManagementContext -->
<g id="node2" class="node">
<title>CustomerAndRelationshipManagementContext</title>
<polygon fill="none" stroke="black" stroke-width="2" points="901.15,-301.7 913.87,-303.61 925.99,-305.6 937.46,-307.64 948.22,-309.75 958.24,-311.9 967.47,-314.09 975.86,-316.31 983.39,-318.56 990.03,-320.83 995.73,-323.1 1000.49,-325.38 1004.28,-327.65 1007.09,-329.91 1008.9,-332.15 1009.72,-334.37 1009.54,-336.56 1008.37,-338.71 1006.21,-340.82 1003.08,-342.89 999.01,-344.9 994,-346.87 988.09,-348.77 981.3,-350.62 973.68,-352.4 965.26,-354.11 956.07,-355.75 946.17,-357.32 935.6,-358.82 924.4,-360.25 912.63,-361.59 900.34,-362.86 887.58,-364.05 874.4,-365.16 860.85,-366.19 847,-367.13 832.89,-368 818.58,-368.78 804.11,-369.48 789.55,-370.09 774.93,-370.62 760.31,-371.07 745.73,-371.43 731.24,-371.7 716.88,-371.89 702.69,-371.99 688.7,-372 674.95,-371.93 661.47,-371.77 648.29,-371.51 635.43,-371.17 622.93,-370.74 610.8,-370.22 599.06,-369.61 587.72,-368.91 576.81,-368.11 566.34,-367.23 556.31,-366.25 546.73,-365.18 537.62,-364.03 528.97,-362.78 520.8,-361.44 513.1,-360.02 505.87,-358.51 499.13,-356.92 492.88,-355.25 487.11,-353.49 481.82,-351.67 477.02,-349.77 472.71,-347.8 468.9,-345.76 465.58,-343.67 462.75,-341.52 460.43,-339.32 458.62,-337.08 457.31,-334.8 456.53,-332.49 456.26,-330.15 456.53,-327.8 457.33,-325.44 458.68,-323.08 460.57,-320.72 463.03,-318.37 466.05,-316.05 469.65,-313.76 473.83,-311.51 478.59,-309.3 483.95,-307.15 489.9,-305.07 496.44,-303.06 503.59,-301.12 511.34,-299.28 519.68,-297.53 528.61,-295.88 538.13,-294.34 548.22,-292.92 558.88,-291.61 570.08,-290.44 581.81,-289.39 594.05,-288.48 606.78,-287.71 619.96,-287.08 633.57,-286.6 647.58,-286.27 661.94,-286.08 676.62,-286.04 691.58,-286.15 706.76,-286.4 722.14,-286.81 737.64,-287.35 753.23,-288.04 768.84,-288.87 784.43,-289.83 799.93,-290.92 815.28,-292.13 830.44,-293.46 845.34,-294.91 859.92,-296.46 874.11,-298.12 887.88,-299.87 901.15,-301.7"/>
<text text-anchor="middle" x="711.59" y="-324.85" font-family="sans-serif" font-size="16.00">CustomerAndRelationshipManagementContext</text>
</g>
<!-- CustomerFacingContext -->
<g id="node3" class="node">
<title>CustomerFacingContext</title>
<polygon fill="none" stroke="black" stroke-width="2" points="1277.6,-217.18 1271.03,-219.28 1264.18,-221.28 1257.09,-223.18 1249.77,-224.98 1242.25,-226.66 1234.56,-228.22 1226.74,-229.65 1218.79,-230.95 1210.76,-232.1 1202.67,-233.12 1194.54,-233.98 1186.4,-234.69 1178.28,-235.25 1170.19,-235.65 1162.15,-235.9 1154.2,-235.98 1146.34,-235.91 1138.6,-235.68 1131,-235.3 1123.55,-234.77 1116.27,-234.09 1109.17,-233.26 1102.27,-232.3 1095.57,-231.2 1089.1,-229.97 1082.85,-228.61 1076.85,-227.15 1071.09,-225.57 1065.58,-223.89 1060.34,-222.12 1055.37,-220.26 1050.67,-218.32 1046.24,-216.32 1042.1,-214.25 1038.25,-212.13 1034.69,-209.96 1031.42,-207.76 1028.46,-205.53 1025.79,-203.29 1023.43,-201.02 1021.38,-198.76 1019.63,-196.49 1018.21,-194.24 1017.09,-192 1016.3,-189.78 1015.84,-187.59 1015.69,-185.44 1015.88,-183.32 1016.4,-181.24 1017.26,-179.21 1018.45,-177.23 1019.98,-175.3 1021.85,-173.43 1024.07,-171.62 1026.62,-169.87 1029.53,-168.18 1032.78,-166.56 1036.37,-165 1040.3,-163.52 1044.57,-162.1 1049.18,-160.75 1054.12,-159.47 1059.38,-158.26 1064.97,-157.12 1070.86,-156.05 1077.06,-155.05 1083.54,-154.13 1090.3,-153.28 1097.33,-152.5 1104.61,-151.8 1112.12,-151.17 1119.84,-150.61 1127.76,-150.14 1135.85,-149.73 1144.09,-149.41 1152.46,-149.17 1160.94,-149 1169.49,-148.92 1178.1,-148.92 1186.73,-149.01 1195.35,-149.18 1203.94,-149.45 1212.46,-149.8 1220.9,-150.24 1229.2,-150.78 1237.36,-151.41 1245.33,-152.13 1253.08,-152.96 1260.59,-153.88 1267.83,-154.9 1274.76,-156.01 1281.37,-157.23 1287.63,-158.54 1293.5,-159.95 1298.98,-161.46 1304.03,-163.06 1308.64,-164.75 1312.79,-166.53 1316.45,-168.4 1319.63,-170.35 1322.3,-172.38 1324.46,-174.49 1326.1,-176.67 1327.21,-178.91 1327.79,-181.2 1327.84,-183.55 1327.37,-185.94 1326.36,-188.37 1324.84,-190.83 1322.81,-193.3 1320.27,-195.79 1317.25,-198.28 1313.76,-200.77 1309.8,-203.24 1305.41,-205.68 1300.6,-208.09 1295.39,-210.45 1289.81,-212.76 1283.87,-215.01 1277.6,-217.18"/>
<text text-anchor="middle" x="1162.59" y="-182.12" font-family="sans-serif" font-size="16.00">CustomerFacingContext</text>
</g>
<!-- DataProcessingContext -->
<g id="node4" class="node">
<title>DataProcessingContext</title>
<polygon fill="none" stroke="black" stroke-width="2" points="1410.35,-38.38 1412.44,-41.08 1414.1,-43.79 1415.33,-46.49 1416.12,-49.18 1416.48,-51.84 1416.39,-54.46 1415.85,-57.04 1414.86,-59.57 1413.42,-62.03 1411.53,-64.41 1409.2,-66.72 1406.43,-68.93 1403.23,-71.05 1399.6,-73.07 1395.56,-74.98 1391.12,-76.78 1386.28,-78.46 1381.08,-80.02 1375.51,-81.46 1369.61,-82.78 1363.37,-83.96 1356.84,-85.03 1350.02,-85.96 1342.95,-86.77 1335.63,-87.45 1328.11,-88.01 1320.39,-88.44 1312.51,-88.76 1304.48,-88.95 1296.35,-89.04 1288.13,-89.01 1279.85,-88.88 1271.53,-88.64 1263.21,-88.31 1254.91,-87.88 1246.65,-87.35 1238.47,-86.75 1230.38,-86.06 1222.41,-85.29 1214.58,-84.45 1206.92,-83.53 1199.46,-82.55 1192.2,-81.51 1185.17,-80.41 1178.39,-79.25 1171.89,-78.03 1165.67,-76.76 1159.75,-75.45 1154.14,-74.08 1148.87,-72.67 1143.93,-71.22 1139.35,-69.72 1135.13,-68.19 1131.28,-66.61 1127.81,-64.99 1124.72,-63.34 1122.02,-61.65 1119.71,-59.93 1117.8,-58.17 1116.28,-56.38 1115.15,-54.55 1114.42,-52.7 1114.08,-50.82 1114.13,-48.9 1114.57,-46.97 1115.38,-45.01 1116.58,-43.03 1118.14,-41.03 1120.07,-39.02 1122.36,-37 1124.99,-34.97 1127.96,-32.95 1131.27,-30.92 1134.89,-28.9 1138.83,-26.9 1143.07,-24.91 1147.6,-22.95 1152.41,-21.03 1157.49,-19.14 1162.82,-17.3 1168.4,-15.51 1174.2,-13.78 1180.23,-12.12 1186.46,-10.54 1192.88,-9.04 1199.48,-7.63 1206.24,-6.31 1213.15,-5.11 1220.2,-4.01 1227.36,-3.04 1234.63,-2.19 1241.98,-1.47 1249.4,-0.88 1256.87,-0.44 1264.39,-0.15 1271.92,0 1279.45,-0.01 1286.96,-0.17 1294.45,-0.49 1301.87,-0.97 1309.23,-1.6 1316.5,-2.4 1323.65,-3.35 1330.68,-4.45 1337.56,-5.7 1344.27,-7.11 1350.79,-8.65 1357.11,-10.33 1363.2,-12.15 1369.05,-14.08 1374.64,-16.14 1379.94,-18.3 1384.95,-20.56 1389.65,-22.91 1394.01,-25.35 1398.03,-27.85 1401.69,-30.42 1404.97,-33.04 1407.86,-35.69 1410.35,-38.38"/>
<text text-anchor="middle" x="1262.59" y="-39.76" font-family="sans-serif" font-size="16.00">DataProcessingContext</text>
</g>
<!-- CustomerFacingContext&#45;&gt;DataProcessingContext -->
<g id="edge1" class="edge">
<title>CustomerFacingContext&#45;&gt;DataProcessingContext</title>
<path fill="none" stroke="black" stroke-width="2" d="M1190.71,-148.6C1204.46,-129.3 1220.95,-106.14 1234.67,-86.88"/>
<text text-anchor="middle" x="1275.58" y="-112.76" font-family="sans-serif" font-size="12.00"> &#160;&#160;&#160;&#160;&#160;&#160;&#160;&#160;&#160;&#160;&#160;&#160;&#160;&#160;&#160;&#160;&#160;&#160;&#160;&#160;&#160;&#160;&#160;&#160;&#160;&#160;&#160;&#160;&#160;&#160;&#160;&#160;&#160;&#160;&#160;&#160;&#160;&#160;&#160;</text>
<polygon fill="white" stroke="none" points="1228.17,-78.51 1228.17,-95.26 1241.17,-95.26 1241.17,-78.51 1228.17,-78.51"/>
<text text-anchor="start" x="1230.17" y="-81.86" font-family="sans-serif" font-size="12.00">D</text>
<polygon fill="white" stroke="none" points="1184.21,-140.22 1184.21,-156.97 1197.21,-156.97 1197.21,-140.22 1184.21,-140.22"/>
<text text-anchor="start" x="1186.21" y="-143.57" font-family="sans-serif" font-size="12.00">U</text>
</g>
<!-- DataAnalisysAndVisualizationContext -->
<g id="node5" class="node">
<title>DataAnalisysAndVisualizationContext</title>
<polygon fill="none" stroke="black" stroke-width="2" points="1600,-307.75 1608.06,-305.45 1616.58,-303.24 1625.53,-301.11 1634.85,-299.08 1644.54,-297.16 1654.54,-295.36 1664.83,-293.67 1675.37,-292.12 1686.12,-290.7 1697.05,-289.43 1708.13,-288.3 1719.33,-287.32 1730.6,-286.49 1741.93,-285.82 1753.27,-285.31 1764.6,-284.96 1775.89,-284.77 1787.11,-284.73 1798.23,-284.86 1809.23,-285.14 1820.09,-285.57 1830.78,-286.15 1841.28,-286.88 1851.56,-287.75 1861.62,-288.75 1871.42,-289.88 1880.95,-291.14 1890.21,-292.51 1899.16,-293.99 1907.79,-295.58 1916.1,-297.25 1924.07,-299.02 1931.68,-300.86 1938.93,-302.78 1945.8,-304.75 1952.28,-306.78 1958.36,-308.85 1964.03,-310.97 1969.28,-313.11 1974.11,-315.27 1978.5,-317.46 1982.44,-319.64 1985.92,-321.83 1988.95,-324.02 1991.5,-326.19 1993.56,-328.35 1995.15,-330.49 1996.23,-332.6 1996.82,-334.68 1996.89,-336.72 1996.45,-338.73 1995.5,-340.69 1994.01,-342.61 1992,-344.48 1989.46,-346.31 1986.38,-348.08 1982.77,-349.8 1978.62,-351.46 1973.94,-353.07 1968.74,-354.62 1963.01,-356.12 1956.75,-357.55 1949.99,-358.93 1942.73,-360.25 1934.98,-361.5 1926.75,-362.7 1918.06,-363.83 1908.92,-364.9 1899.36,-365.91 1889.4,-366.85 1879.05,-367.73 1868.36,-368.54 1857.33,-369.28 1846,-369.95 1834.41,-370.55 1822.59,-371.07 1810.56,-371.51 1798.37,-371.88 1786.05,-372.17 1773.65,-372.37 1761.2,-372.49 1748.73,-372.52 1736.31,-372.45 1723.96,-372.29 1711.72,-372.04 1699.65,-371.69 1687.78,-371.23 1676.16,-370.68 1664.82,-370.01 1653.81,-369.25 1643.17,-368.37 1632.93,-367.39 1623.14,-366.29 1613.83,-365.09 1605.03,-363.78 1596.78,-362.36 1589.1,-360.83 1582.03,-359.2 1575.58,-357.47 1569.78,-355.64 1564.66,-353.71 1560.22,-351.69 1556.49,-349.59 1553.46,-347.4 1551.16,-345.14 1549.59,-342.82 1548.75,-340.43 1548.63,-337.98 1549.24,-335.49 1550.56,-332.97 1552.6,-330.41 1555.33,-327.84 1558.75,-325.25 1562.82,-322.67 1567.55,-320.1 1572.89,-317.55 1578.84,-315.03 1585.36,-312.55 1592.42,-310.12 1600,-307.75"/>
<text text-anchor="middle" x="1782.59" y="-324.85" font-family="sans-serif" font-size="16.00">DataAnalisysAndVisualizationContext</text>
</g>
<!-- DataIngestionAndCanonizationContext -->
<g id="node6" class="node">
<title>DataIngestionAndCanonizationContext</title>
<polygon fill="none" stroke="black" stroke-width="2" points="1116.72,-361.37 1106.16,-359.43 1096.11,-357.41 1086.63,-355.33 1077.73,-353.2 1069.48,-351.02 1061.9,-348.8 1055.02,-346.56 1048.87,-344.29 1043.48,-342.01 1038.88,-339.72 1035.08,-337.43 1032.09,-335.15 1029.93,-332.88 1028.61,-330.63 1028.13,-328.41 1028.49,-326.23 1029.68,-324.08 1031.7,-321.97 1034.53,-319.91 1038.17,-317.91 1042.58,-315.96 1047.75,-314.07 1053.65,-312.25 1060.25,-310.49 1067.52,-308.8 1075.43,-307.18 1083.94,-305.63 1093,-304.17 1102.59,-302.77 1112.65,-301.46 1123.15,-300.22 1134.04,-299.07 1145.27,-298 1156.8,-297.01 1168.58,-296.1 1180.58,-295.27 1192.73,-294.53 1205.01,-293.87 1217.36,-293.3 1229.75,-292.81 1242.14,-292.4 1254.48,-292.08 1266.74,-291.85 1278.88,-291.7 1290.87,-291.64 1302.69,-291.66 1314.29,-291.78 1325.65,-291.98 1336.76,-292.26 1347.58,-292.64 1358.09,-293.1 1368.28,-293.66 1378.14,-294.3 1387.64,-295.04 1396.78,-295.86 1405.54,-296.77 1413.91,-297.78 1421.9,-298.87 1429.48,-300.05 1436.67,-301.32 1443.44,-302.68 1449.81,-304.12 1455.76,-305.65 1461.3,-307.26 1466.43,-308.95 1471.14,-310.72 1475.43,-312.56 1479.3,-314.48 1482.75,-316.46 1485.78,-318.5 1488.39,-320.6 1490.57,-322.76 1492.32,-324.96 1493.65,-327.21 1494.53,-329.49 1494.98,-331.81 1494.98,-334.14 1494.54,-336.49 1493.64,-338.85 1492.28,-341.21 1490.46,-343.56 1488.16,-345.9 1485.39,-348.21 1482.14,-350.5 1478.4,-352.74 1474.17,-354.93 1469.45,-357.06 1464.23,-359.13 1458.51,-361.13 1452.3,-363.04 1445.59,-364.86 1438.38,-366.59 1430.68,-368.21 1422.5,-369.73 1413.85,-371.12 1404.73,-372.4 1395.16,-373.54 1385.16,-374.55 1374.74,-375.43 1363.92,-376.17 1352.73,-376.76 1341.2,-377.2 1329.34,-377.5 1317.2,-377.65 1304.8,-377.65 1292.19,-377.5 1279.39,-377.2 1266.45,-376.75 1253.41,-376.17 1240.32,-375.44 1227.21,-374.57 1214.15,-373.56 1201.16,-372.43 1188.31,-371.18 1175.64,-369.8 1163.2,-368.32 1151.04,-366.72 1139.21,-365.03 1127.75,-363.24 1116.72,-361.37"/>
<text text-anchor="middle" x="1279.59" y="-324.85" font-family="sans-serif" font-size="16.00">DataIngestionAndCanonizationContext</text>
</g>
<!-- DataIngestionAndCanonizationContext&#45;&gt;CustomerFacingContext -->
<g id="edge3" class="edge">
<title>DataIngestionAndCanonizationContext&#45;&gt;CustomerFacingContext</title>
<path fill="none" stroke="black" stroke-width="2" d="M1247.3,-291.97C1232.36,-273.99 1214.53,-252.55 1199.09,-233.98"/>
<text text-anchor="middle" x="1284.59" y="-255.33" font-family="sans-serif" font-size="12.00"> &#160;&#160;&#160;&#160;&#160;&#160;&#160;&#160;&#160;&#160;&#160;&#160;&#160;&#160;&#160;&#160;&#160;&#160;&#160;&#160;&#160;&#160;&#160;&#160;&#160;&#160;&#160;&#160;&#160;&#160;&#160;&#160;&#160;&#160;&#160;&#160;&#160;&#160;&#160;</text>
<polygon fill="white" stroke="none" points="1192.59,-225.61 1192.59,-242.36 1205.59,-242.36 1205.59,-225.61 1192.59,-225.61"/>
<text text-anchor="start" x="1194.59" y="-228.96" font-family="sans-serif" font-size="12.00">D</text>
<polygon fill="white" stroke="none" points="1240.8,-283.6 1240.8,-300.35 1253.8,-300.35 1253.8,-283.6 1240.8,-283.6"/>
<text text-anchor="start" x="1242.8" y="-286.95" font-family="sans-serif" font-size="12.00">U</text>
</g>
<!-- DataIngestionAndCanonizationContext&#45;&gt;DataProcessingContext -->
<g id="edge2" class="edge">
<title>DataIngestionAndCanonizationContext&#45;&gt;DataProcessingContext</title>
<path fill="none" stroke="black" stroke-width="2" d="M1331.76,-291.82C1338.6,-284.29 1344.6,-275.87 1348.59,-266.73 1350.85,-261.54 1348.76,-259.65 1348.59,-253.98 1346.58,-190.52 1368.41,-167.98 1339.59,-111.41 1335.33,-103.07 1329.45,-95.41 1322.81,-88.51"/>
<text text-anchor="middle" x="1393.26" y="-184.05" font-family="sans-serif" font-size="12.00">Shared Kernel</text>
</g>
<!-- DataIngestionContext -->
<g id="node7" class="node">
<title>DataIngestionContext</title>
<polygon fill="none" stroke="black" stroke-width="2" points="2148.64,-291.42 2157.36,-290.56 2166.15,-289.81 2174.97,-289.18 2183.78,-288.68 2192.54,-288.3 2201.23,-288.06 2209.81,-287.94 2218.25,-287.95 2226.52,-288.09 2234.59,-288.37 2242.44,-288.78 2250.03,-289.32 2257.35,-290 2264.38,-290.8 2271.09,-291.73 2277.46,-292.78 2283.5,-293.95 2289.17,-295.24 2294.47,-296.64 2299.39,-298.15 2303.93,-299.77 2308.07,-301.48 2311.82,-303.29 2315.18,-305.18 2318.15,-307.15 2320.72,-309.19 2322.91,-311.3 2324.72,-313.47 2326.16,-315.69 2327.23,-317.95 2327.95,-320.25 2328.31,-322.57 2328.34,-324.92 2328.04,-327.28 2327.43,-329.64 2326.52,-332 2325.31,-334.35 2323.81,-336.68 2322.05,-338.98 2320.03,-341.25 2317.76,-343.49 2315.25,-345.67 2312.5,-347.81 2309.54,-349.89 2306.36,-351.9 2302.98,-353.84 2299.4,-355.71 2295.62,-357.5 2291.66,-359.21 2287.51,-360.83 2283.19,-362.36 2278.69,-363.79 2274.02,-365.13 2269.19,-366.37 2264.19,-367.51 2259.02,-368.54 2253.7,-369.47 2248.23,-370.3 2242.6,-371.02 2236.82,-371.63 2230.9,-372.13 2224.84,-372.53 2218.65,-372.82 2212.33,-373.01 2205.88,-373.09 2199.33,-373.07 2192.67,-372.94 2185.91,-372.71 2179.08,-372.38 2172.18,-371.96 2165.22,-371.43 2158.22,-370.82 2151.2,-370.1 2144.18,-369.3 2137.17,-368.41 2130.19,-367.44 2123.27,-366.38 2116.43,-365.24 2109.7,-364.02 2103.09,-362.72 2096.63,-361.35 2090.36,-359.91 2084.28,-358.4 2078.44,-356.83 2072.85,-355.19 2067.54,-353.5 2062.55,-351.75 2057.88,-349.95 2053.57,-348.09 2049.65,-346.2 2046.13,-344.26 2043.03,-342.28 2040.38,-340.27 2038.19,-338.23 2036.48,-336.16 2035.27,-334.08 2034.56,-331.97 2034.36,-329.86 2034.69,-327.74 2035.54,-325.61 2036.93,-323.49 2038.84,-321.38 2041.28,-319.29 2044.25,-317.21 2047.72,-315.16 2051.7,-313.14 2056.17,-311.16 2061.12,-309.22 2066.51,-307.33 2072.35,-305.49 2078.59,-303.72 2085.22,-302.01 2092.21,-300.37 2099.54,-298.82 2107.16,-297.34 2115.05,-295.96 2123.18,-294.67 2131.51,-293.48 2140,-292.4 2148.64,-291.42"/>
<text text-anchor="middle" x="2190.59" y="-324.85" font-family="sans-serif" font-size="16.00">DataIngestionContext</text>
</g>
<!-- DataSecurityAndPrivacyContext -->
<g id="node8" class="node">
<title>DataSecurityAndPrivacyContext</title>
<polygon fill="none" stroke="black" stroke-width="2" points="2540.53,-290.32 2552.87,-289.74 2565.24,-289.27 2577.59,-288.93 2589.87,-288.7 2602.03,-288.6 2614.02,-288.63 2625.8,-288.78 2637.33,-289.06 2648.56,-289.46 2659.46,-289.99 2669.99,-290.65 2680.11,-291.43 2689.79,-292.32 2699.01,-293.34 2707.73,-294.48 2715.95,-295.72 2723.63,-297.08 2730.77,-298.54 2737.34,-300.1 2743.34,-301.76 2748.77,-303.51 2753.62,-305.34 2757.88,-307.26 2761.57,-309.24 2764.68,-311.3 2767.23,-313.41 2769.22,-315.57 2770.66,-317.79 2771.56,-320.04 2771.94,-322.32 2771.82,-324.63 2771.21,-326.95 2770.13,-329.29 2768.6,-331.62 2766.63,-333.95 2764.26,-336.27 2761.48,-338.57 2758.33,-340.84 2754.82,-343.08 2750.97,-345.27 2746.8,-347.42 2742.33,-349.52 2737.56,-351.55 2732.52,-353.53 2727.21,-355.43 2721.66,-357.26 2715.87,-359 2709.86,-360.66 2703.63,-362.24 2697.19,-363.72 2690.55,-365.1 2683.72,-366.39 2676.7,-367.57 2669.5,-368.65 2662.12,-369.63 2654.57,-370.49 2646.86,-371.25 2638.98,-371.9 2630.95,-372.44 2622.76,-372.86 2614.43,-373.18 2605.96,-373.39 2597.35,-373.48 2588.62,-373.47 2579.78,-373.34 2570.83,-373.11 2561.79,-372.78 2552.67,-372.34 2543.48,-371.8 2534.25,-371.16 2524.99,-370.42 2515.73,-369.58 2506.47,-368.66 2497.25,-367.64 2488.1,-366.53 2479.03,-365.34 2470.08,-364.07 2461.28,-362.72 2452.66,-361.3 2444.25,-359.8 2436.08,-358.24 2428.19,-356.61 2420.61,-354.91 2413.37,-353.17 2406.51,-351.36 2400.07,-349.51 2394.08,-347.61 2388.56,-345.67 2383.56,-343.7 2379.1,-341.69 2375.22,-339.65 2371.93,-337.58 2369.27,-335.5 2367.25,-333.4 2365.9,-331.29 2365.24,-329.18 2365.27,-327.07 2366.01,-324.96 2367.47,-322.86 2369.65,-320.77 2372.56,-318.71 2376.18,-316.67 2380.52,-314.66 2385.56,-312.69 2391.29,-310.76 2397.7,-308.87 2404.75,-307.04 2412.43,-305.27 2420.71,-303.56 2429.56,-301.92 2438.94,-300.35 2448.82,-298.86 2459.15,-297.45 2469.9,-296.13 2481.02,-294.91 2492.47,-293.78 2504.19,-292.76 2516.14,-291.83 2528.27,-291.02 2540.53,-290.32"/>
<text text-anchor="middle" x="2578.59" y="-324.85" font-family="sans-serif" font-size="16.00">DataSecurityAndPrivacyContext</text>
</g>
<!-- EscalabilityAndInfrastructureContext -->
<g id="node9" class="node">
<title>EscalabilityAndInfrastructureContext</title>
<polygon fill="none" stroke="black" stroke-width="2" points="3236.71,-340.34 3234.07,-343.05 3230.86,-345.73 3227.1,-348.35 3222.8,-350.91 3217.97,-353.4 3212.62,-355.81 3206.77,-358.12 3200.44,-360.34 3193.65,-362.44 3186.42,-364.43 3178.76,-366.3 3170.7,-368.03 3162.27,-369.63 3153.47,-371.09 3144.35,-372.41 3134.92,-373.58 3125.21,-374.59 3115.25,-375.46 3105.06,-376.18 3094.66,-376.74 3084.1,-377.15 3073.38,-377.41 3062.55,-377.52 3051.62,-377.49 3040.64,-377.31 3029.62,-377 3018.59,-376.55 3007.59,-375.98 2996.63,-375.28 2985.76,-374.47 2974.99,-373.54 2964.35,-372.51 2953.88,-371.38 2943.59,-370.16 2933.52,-368.85 2923.68,-367.47 2914.12,-366.01 2904.84,-364.49 2895.88,-362.91 2887.25,-361.27 2878.99,-359.59 2871.11,-357.87 2863.63,-356.12 2856.58,-354.33 2849.97,-352.52 2843.82,-350.68 2838.15,-348.84 2832.98,-346.97 2828.32,-345.1 2824.18,-343.23 2820.58,-341.35 2817.53,-339.47 2815.03,-337.59 2813.1,-335.72 2811.75,-333.85 2810.97,-331.99 2810.78,-330.14 2811.17,-328.3 2812.15,-326.47 2813.72,-324.66 2815.87,-322.85 2818.6,-321.06 2821.9,-319.29 2825.77,-317.54 2830.2,-315.81 2835.18,-314.09 2840.69,-312.4 2846.72,-310.73 2853.27,-309.1 2860.3,-307.49 2867.8,-305.91 2875.75,-304.37 2884.14,-302.86 2892.93,-301.4 2902.1,-299.99 2911.64,-298.63 2921.5,-297.32 2931.67,-296.08 2942.11,-294.9 2952.8,-293.79 2963.7,-292.75 2974.79,-291.8 2986.02,-290.93 2997.38,-290.16 3008.82,-289.48 3020.32,-288.9 3031.83,-288.44 3043.33,-288.08 3054.79,-287.85 3066.16,-287.74 3077.42,-287.75 3088.53,-287.89 3099.46,-288.17 3110.18,-288.58 3120.66,-289.14 3130.86,-289.83 3140.76,-290.66 3150.33,-291.63 3159.55,-292.75 3168.37,-294 3176.79,-295.4 3184.78,-296.92 3192.31,-298.58 3199.36,-300.37 3205.92,-302.28 3211.96,-304.3 3217.47,-306.44 3222.44,-308.68 3226.86,-311.02 3230.7,-313.44 3233.97,-315.95 3236.65,-318.52 3238.74,-321.15 3240.23,-323.83 3241.13,-326.55 3241.43,-329.3 3241.14,-332.06 3240.25,-334.83 3238.77,-337.59 3236.71,-340.34"/>
<text text-anchor="middle" x="3025.59" y="-324.85" font-family="sans-serif" font-size="16.00">EscalabilityAndInfrastructureContext</text>
</g>
<!-- InvestigationAndDevelopmentContext -->
<g id="node10" class="node">
<title>InvestigationAndDevelopmentContext</title>
<polygon fill="none" stroke="black" stroke-width="2" points="3373.81,-365.74 3362.02,-364.12 3350.67,-362.42 3339.81,-360.65 3329.48,-358.8 3319.72,-356.89 3310.58,-354.92 3302.1,-352.9 3294.3,-350.84 3287.23,-348.74 3280.91,-346.61 3275.35,-344.46 3270.6,-342.3 3266.65,-340.12 3263.53,-337.94 3261.24,-335.76 3259.78,-333.59 3259.16,-331.43 3259.38,-329.29 3260.42,-327.18 3262.27,-325.09 3264.93,-323.04 3268.36,-321.02 3272.55,-319.05 3277.47,-317.12 3283.1,-315.24 3289.39,-313.41 3296.33,-311.64 3303.87,-309.93 3311.97,-308.27 3320.6,-306.68 3329.71,-305.16 3339.26,-303.7 3349.21,-302.32 3359.52,-301 3370.14,-299.76 3381.03,-298.6 3392.15,-297.51 3403.45,-296.51 3414.89,-295.58 3426.44,-294.74 3438.05,-293.98 3449.7,-293.3 3461.33,-292.72 3472.92,-292.22 3484.44,-291.81 3495.85,-291.49 3507.14,-291.26 3518.26,-291.13 3529.21,-291.09 3539.96,-291.15 3550.48,-291.3 3560.77,-291.55 3570.81,-291.9 3580.58,-292.35 3590.07,-292.9 3599.27,-293.54 3608.18,-294.29 3616.78,-295.14 3625.07,-296.09 3633.04,-297.13 3640.7,-298.28 3648.02,-299.52 3655.03,-300.85 3661.69,-302.28 3668.03,-303.81 3674.03,-305.41 3679.68,-307.11 3684.99,-308.89 3689.95,-310.74 3694.55,-312.67 3698.8,-314.68 3702.68,-316.74 3706.18,-318.87 3709.3,-321.05 3712.04,-323.28 3714.37,-325.55 3716.3,-327.86 3717.8,-330.19 3718.87,-332.55 3719.5,-334.92 3719.68,-337.29 3719.39,-339.67 3718.62,-342.03 3717.36,-344.38 3715.6,-346.7 3713.32,-348.99 3710.52,-351.23 3707.19,-353.43 3703.31,-355.57 3698.89,-357.64 3693.92,-359.63 3688.39,-361.55 3682.3,-363.38 3675.65,-365.11 3668.45,-366.74 3660.7,-368.26 3652.42,-369.67 3643.6,-370.96 3634.27,-372.13 3624.44,-373.17 3614.13,-374.08 3603.37,-374.85 3592.18,-375.49 3580.59,-375.99 3568.63,-376.35 3556.34,-376.57 3543.75,-376.65 3530.9,-376.58 3517.84,-376.38 3504.6,-376.04 3491.25,-375.56 3477.82,-374.95 3464.36,-374.21 3450.93,-373.34 3437.58,-372.35 3424.36,-371.25 3411.31,-370.03 3398.51,-368.7 3385.99,-367.27 3373.81,-365.74"/>
<text text-anchor="middle" x="3506.59" y="-324.85" font-family="sans-serif" font-size="16.00">InvestigationAndDevelopmentContext</text>
</g>
</g>
</svg>
