<svg width="2000px" height="1824px"
 viewBox="0.00 0.00 1114.55 1016.91" xmlns="http://www.w3.org/2000/svg" xmlns:xlink="http://www.w3.org/1999/xlink">
<g id="graph0" class="graph" transform="scale(1.0 1.0) rotate(0) translate(4 1012.91)">
<title>ContextMapGraph</title>
<polygon fill="white" stroke="none" points="-4,4 -4,-1012.91 1110.55,-1012.91 1110.55,4 -4,4"/>
<!-- AIModelDevelopmentContext -->
<g id="node1" class="node">
<title>AIModelDevelopmentContext</title>
<polygon fill="none" stroke="black" stroke-width="2" points="536.71,-610.44 548.99,-610.11 561.24,-609.91 573.41,-609.84 585.45,-609.91 597.33,-610.11 608.98,-610.44 620.37,-610.9 631.45,-611.49 642.19,-612.22 652.54,-613.07 662.47,-614.05 671.95,-615.16 680.95,-616.39 689.44,-617.73 697.4,-619.2 704.81,-620.77 711.65,-622.44 717.9,-624.22 723.57,-626.1 728.63,-628.06 733.09,-630.12 736.95,-632.24 740.21,-634.45 742.87,-636.71 744.94,-639.04 746.43,-641.41 747.35,-643.84 747.71,-646.29 747.54,-648.78 746.85,-651.29 745.65,-653.81 743.97,-656.34 741.83,-658.87 739.25,-661.38 736.25,-663.88 732.86,-666.36 729.09,-668.81 724.96,-671.21 720.5,-673.57 715.74,-675.88 710.67,-678.13 705.34,-680.31 699.75,-682.42 693.93,-684.45 687.88,-686.4 681.63,-688.26 675.19,-690.02 668.56,-691.69 661.76,-693.25 654.81,-694.71 647.71,-696.06 640.46,-697.3 633.08,-698.41 625.57,-699.42 617.94,-700.3 610.19,-701.06 602.34,-701.69 594.37,-702.2 586.31,-702.59 578.15,-702.85 569.89,-702.99 561.56,-703 553.14,-702.88 544.66,-702.65 536.11,-702.29 527.52,-701.82 518.88,-701.22 510.22,-700.51 501.54,-699.69 492.86,-698.75 484.2,-697.71 475.57,-696.56 467,-695.32 458.51,-693.97 450.12,-692.53 441.86,-691 433.75,-689.38 425.82,-687.68 418.1,-685.91 410.62,-684.06 403.4,-682.14 396.49,-680.15 389.9,-678.11 383.68,-676.02 377.86,-673.87 372.46,-671.68 367.51,-669.45 363.05,-667.19 359.11,-664.9 355.72,-662.59 352.89,-660.26 350.65,-657.92 349.04,-655.57 348.05,-653.22 347.73,-650.88 348.07,-648.55 349.09,-646.24 350.79,-643.95 353.19,-641.69 356.29,-639.46 360.08,-637.27 364.56,-635.13 369.71,-633.04 375.54,-631.01 382.01,-629.04 389.12,-627.14 396.84,-625.32 405.14,-623.57 413.99,-621.91 423.36,-620.33 433.22,-618.85 443.52,-617.47 454.23,-616.19 465.3,-615.02 476.69,-613.96 488.35,-613.01 500.23,-612.19 512.28,-611.48 524.46,-610.9 536.71,-610.44"/>
<text text-anchor="middle" x="554.36" y="-652.84" font-family="sans-serif" font-size="16.00">AIModelDevelopmentContext</text>
</g>
<!-- DataCanonizationContext -->
<g id="node2" class="node">
<title>DataCanonizationContext</title>
<polygon fill="none" stroke="black" stroke-width="2" points="485.66,-531.95 479.41,-534.45 472.81,-536.85 465.91,-539.16 458.72,-541.36 451.27,-543.44 443.59,-545.38 435.7,-547.2 427.63,-548.87 419.41,-550.39 411.06,-551.75 402.6,-552.96 394.08,-553.99 385.5,-554.86 376.9,-555.56 368.29,-556.08 359.71,-556.42 351.16,-556.59 342.68,-556.59 334.28,-556.41 325.99,-556.07 317.82,-555.55 309.78,-554.87 301.9,-554.03 294.19,-553.04 286.66,-551.9 279.33,-550.62 272.21,-549.2 265.32,-547.65 258.65,-545.99 252.24,-544.22 246.08,-542.34 240.18,-540.37 234.55,-538.31 229.21,-536.18 224.16,-533.98 219.4,-531.73 214.95,-529.42 210.81,-527.08 206.99,-524.7 203.49,-522.3 200.33,-519.88 197.5,-517.46 195.02,-515.04 192.88,-512.62 191.11,-510.22 189.69,-507.84 188.65,-505.48 187.97,-503.16 187.67,-500.87 187.76,-498.62 188.23,-496.41 189.09,-494.25 190.34,-492.15 191.99,-490.09 194.04,-488.1 196.49,-486.16 199.34,-484.28 202.58,-482.47 206.23,-480.71 210.27,-479.02 214.71,-477.4 219.53,-475.84 224.73,-474.35 230.31,-472.93 236.26,-471.58 242.56,-470.29 249.21,-469.07 256.18,-467.93 263.48,-466.86 271.07,-465.86 278.95,-464.93 287.09,-464.08 295.47,-463.3 304.07,-462.61 312.87,-461.99 321.85,-461.46 330.96,-461.01 340.2,-460.65 349.53,-460.39 358.92,-460.21 368.33,-460.13 377.75,-460.14 387.14,-460.26 396.46,-460.47 405.69,-460.8 414.78,-461.23 423.72,-461.77 432.47,-462.43 440.99,-463.2 449.25,-464.08 457.23,-465.09 464.9,-466.21 472.22,-467.45 479.18,-468.8 485.73,-470.28 491.87,-471.87 497.57,-473.58 502.8,-475.4 507.55,-477.33 511.8,-479.36 515.54,-481.5 518.76,-483.74 521.43,-486.07 523.57,-488.48 525.15,-490.98 526.18,-493.55 526.65,-496.18 526.57,-498.87 525.94,-501.61 524.76,-504.38 523.04,-507.19 520.8,-510.01 518.04,-512.84 514.78,-515.66 511.04,-518.48 506.82,-521.27 502.15,-524.02 497.06,-526.72 491.55,-529.37 485.66,-531.95"/>
<text text-anchor="middle" x="349.36" y="-500.87" font-family="sans-serif" font-size="16.00">DataCanonizationContext</text>
</g>
<!-- AIModelDevelopmentContext&#45;&gt;DataCanonizationContext -->
<g id="edge1" class="edge">
<title>AIModelDevelopmentContext&#45;&gt;DataCanonizationContext</title>
<path fill="none" stroke="black" stroke-width="2" d="M456.92,-615.57C444.09,-608.5 431.53,-600.57 420.36,-591.84 407.08,-581.47 394.62,-568.22 383.97,-555.23"/>
<text text-anchor="middle" x="480.36" y="-580.44" font-family="sans-serif" font-size="12.00"> &#160;&#160;&#160;&#160;&#160;&#160;&#160;&#160;&#160;&#160;&#160;&#160;&#160;&#160;&#160;&#160;&#160;&#160;&#160;&#160;&#160;&#160;&#160;&#160;&#160;&#160;&#160;&#160;&#160;&#160;&#160;&#160;&#160;&#160;&#160;&#160;&#160;&#160;&#160;</text>
<polygon fill="white" stroke="none" points="377.47,-544.61 377.47,-565.86 390.47,-565.86 390.47,-544.61 377.47,-544.61"/>
<text text-anchor="start" x="379.47" y="-552.46" font-family="sans-serif" font-size="12.00">D</text>
<polygon fill="white" stroke="none" points="450.42,-604.94 450.42,-626.19 463.42,-626.19 463.42,-604.94 450.42,-604.94"/>
<text text-anchor="start" x="452.42" y="-612.79" font-family="sans-serif" font-size="12.00">U</text>
</g>
<!-- AutomatizationContext -->
<g id="node5" class="node">
<title>AutomatizationContext</title>
<polygon fill="none" stroke="black" stroke-width="2" points="514.52,-87.39 506.68,-89.31 498.61,-91.12 490.37,-92.81 481.96,-94.37 473.44,-95.8 464.83,-97.09 456.16,-98.23 447.46,-99.21 438.76,-100.05 430.09,-100.72 421.48,-101.23 412.96,-101.57 404.54,-101.75 396.26,-101.76 388.14,-101.6 380.2,-101.28 372.45,-100.79 364.92,-100.14 357.63,-99.32 350.58,-98.35 343.79,-97.23 337.28,-95.97 331.05,-94.56 325.11,-93.01 319.47,-91.34 314.14,-89.55 309.12,-87.64 304.41,-85.63 300.02,-83.52 295.95,-81.32 292.2,-79.05 288.77,-76.7 285.66,-74.29 282.87,-71.84 280.4,-69.34 278.24,-66.8 276.41,-64.25 274.88,-61.68 273.67,-59.1 272.76,-56.52 272.17,-53.96 271.88,-51.42 271.9,-48.9 272.22,-46.41 272.85,-43.97 273.78,-41.57 275.01,-39.22 276.55,-36.94 278.38,-34.71 280.52,-32.56 282.96,-30.47 285.71,-28.46 288.75,-26.53 292.1,-24.69 295.75,-22.92 299.7,-21.25 303.96,-19.66 308.51,-18.16 313.35,-16.76 318.49,-15.44 323.92,-14.22 329.63,-13.1 335.62,-12.06 341.89,-11.12 348.41,-10.27 355.18,-9.52 362.2,-8.86 369.45,-8.29 376.91,-7.82 384.58,-7.44 392.42,-7.15 400.43,-6.95 408.59,-6.85 416.87,-6.84 425.25,-6.92 433.7,-7.1 442.21,-7.37 450.75,-7.73 459.28,-8.18 467.78,-8.73 476.22,-9.37 484.57,-10.11 492.8,-10.94 500.88,-11.86 508.77,-12.88 516.46,-13.99 523.9,-15.19 531.06,-16.49 537.93,-17.88 544.46,-19.37 550.62,-20.94 556.4,-22.61 561.77,-24.36 566.7,-26.19 571.17,-28.11 575.16,-30.11 578.66,-32.19 581.63,-34.34 584.08,-36.56 585.99,-38.84 587.35,-41.18 588.15,-43.58 588.39,-46.02 588.07,-48.51 587.18,-51.03 585.74,-53.58 583.75,-56.14 581.21,-58.72 578.13,-61.3 574.54,-63.88 570.45,-66.45 565.87,-68.99 560.82,-71.5 555.33,-73.96 549.42,-76.38 543.12,-78.74 536.45,-81.03 529.44,-83.24 522.12,-85.36 514.52,-87.39"/>
<text text-anchor="middle" x="418.36" y="-46.93" font-family="sans-serif" font-size="16.00">AutomatizationContext</text>
</g>
<!-- AIModelDevelopmentContext&#45;&gt;AutomatizationContext -->
<g id="edge2" class="edge">
<title>AIModelDevelopmentContext&#45;&gt;AutomatizationContext</title>
<path fill="none" stroke="black" stroke-width="2" d="M554.36,-609.84C554.36,-580.16 554.36,-540.71 554.36,-505.82 554.36,-505.82 554.36,-505.82 554.36,-202.56 554.36,-157.63 520.62,-120.08 486.75,-93.7"/>
<text text-anchor="middle" x="614.36" y="-349.8" font-family="sans-serif" font-size="12.00"> &#160;&#160;&#160;&#160;&#160;&#160;&#160;&#160;&#160;&#160;&#160;&#160;&#160;&#160;&#160;&#160;&#160;&#160;&#160;&#160;&#160;&#160;&#160;&#160;&#160;&#160;&#160;&#160;&#160;&#160;&#160;&#160;&#160;&#160;&#160;&#160;&#160;&#160;&#160;</text>
<polygon fill="white" stroke="none" points="480.25,-83.07 480.25,-104.32 493.25,-104.32 493.25,-83.07 480.25,-83.07"/>
<text text-anchor="start" x="482.25" y="-90.92" font-family="sans-serif" font-size="12.00">D</text>
<polygon fill="white" stroke="none" points="547.86,-599.22 547.86,-620.47 560.86,-620.47 560.86,-599.22 547.86,-599.22"/>
<text text-anchor="start" x="549.86" y="-607.07" font-family="sans-serif" font-size="12.00">U</text>
</g>
<!-- InvestigationAndDevelopmentContext -->
<g id="node6" class="node">
<title>InvestigationAndDevelopmentContext</title>
<polygon fill="none" stroke="black" stroke-width="2" points="703.65,-542.17 691.16,-540.39 679.13,-538.52 667.62,-536.57 656.67,-534.53 646.33,-532.43 636.65,-530.26 627.66,-528.04 619.4,-525.77 611.9,-523.46 605.2,-521.12 599.31,-518.76 594.27,-516.37 590.09,-513.98 586.78,-511.58 584.35,-509.18 582.81,-506.79 582.16,-504.42 582.39,-502.06 583.49,-499.73 585.45,-497.44 588.27,-495.18 591.9,-492.96 596.34,-490.79 601.56,-488.67 607.52,-486.6 614.19,-484.58 621.54,-482.63 629.53,-480.75 638.12,-478.93 647.26,-477.18 656.91,-475.5 667.04,-473.9 677.58,-472.37 688.51,-470.93 699.76,-469.56 711.3,-468.28 723.08,-467.09 735.06,-465.98 747.19,-464.96 759.43,-464.03 771.73,-463.2 784.07,-462.45 796.4,-461.81 808.68,-461.26 820.89,-460.81 832.98,-460.46 844.94,-460.21 856.73,-460.06 868.33,-460.02 879.72,-460.08 890.88,-460.25 901.78,-460.52 912.41,-460.91 922.77,-461.4 932.82,-462.01 942.58,-462.72 952.01,-463.54 961.13,-464.48 969.91,-465.52 978.36,-466.67 986.47,-467.93 994.24,-469.29 1001.66,-470.76 1008.73,-472.34 1015.44,-474.01 1021.8,-475.78 1027.79,-477.65 1033.41,-479.6 1038.67,-481.65 1043.55,-483.77 1048.05,-485.97 1052.16,-488.25 1055.87,-490.59 1059.18,-492.99 1062.08,-495.44 1064.55,-497.94 1066.59,-500.48 1068.18,-503.05 1069.32,-505.64 1069.99,-508.25 1070.18,-510.86 1069.87,-513.48 1069.05,-516.08 1067.72,-518.66 1065.85,-521.22 1063.44,-523.74 1060.47,-526.21 1056.94,-528.62 1052.83,-530.97 1048.15,-533.25 1042.88,-535.45 1037.01,-537.56 1030.56,-539.57 1023.52,-541.47 1015.89,-543.27 1007.68,-544.94 998.9,-546.5 989.55,-547.92 979.66,-549.2 969.25,-550.35 958.33,-551.35 946.92,-552.2 935.06,-552.9 922.78,-553.45 910.1,-553.85 897.08,-554.09 883.73,-554.17 870.12,-554.1 856.28,-553.88 842.26,-553.5 828.1,-552.98 813.87,-552.31 799.61,-551.49 785.38,-550.54 771.23,-549.45 757.21,-548.23 743.39,-546.89 729.82,-545.43 716.56,-543.85 703.65,-542.17"/>
<text text-anchor="middle" x="844.36" y="-500.87" font-family="sans-serif" font-size="16.00">InvestigationAndDevelopmentContext</text>
</g>
<!-- AIModelDevelopmentContext&#45;&gt;InvestigationAndDevelopmentContext -->
<g id="edge3" class="edge">
<title>AIModelDevelopmentContext&#45;&gt;InvestigationAndDevelopmentContext</title>
<path fill="none" stroke="black" stroke-width="2" d="M609.49,-610.11C626.16,-597.59 644.94,-584.69 663.36,-574.59 682.96,-563.84 704.59,-554.04 725.87,-545.41"/>
<text text-anchor="middle" x="723.36" y="-580.44" font-family="sans-serif" font-size="12.00"> &#160;&#160;&#160;&#160;&#160;&#160;&#160;&#160;&#160;&#160;&#160;&#160;&#160;&#160;&#160;&#160;&#160;&#160;&#160;&#160;&#160;&#160;&#160;&#160;&#160;&#160;&#160;&#160;&#160;&#160;&#160;&#160;&#160;&#160;&#160;&#160;&#160;&#160;&#160;</text>
<polygon fill="white" stroke="none" points="719.37,-534.79 719.37,-556.04 732.37,-556.04 732.37,-534.79 719.37,-534.79"/>
<text text-anchor="start" x="721.37" y="-542.64" font-family="sans-serif" font-size="12.00">D</text>
<polygon fill="white" stroke="none" points="602.99,-599.48 602.99,-620.73 615.99,-620.73 615.99,-599.48 602.99,-599.48"/>
<text text-anchor="start" x="604.99" y="-607.33" font-family="sans-serif" font-size="12.00">U</text>
</g>
<!-- DataIngestionContext -->
<g id="node3" class="node">
<title>DataIngestionContext</title>
<polygon fill="none" stroke="black" stroke-width="2" points="247.87,-398.63 238.32,-399.12 228.77,-399.48 219.26,-399.7 209.83,-399.79 200.51,-399.75 191.33,-399.57 182.35,-399.25 173.57,-398.8 165.05,-398.22 156.81,-397.5 148.88,-396.64 141.28,-395.66 134.03,-394.55 127.17,-393.32 120.7,-391.96 114.64,-390.49 109.01,-388.9 103.82,-387.2 99.07,-385.4 94.78,-383.51 90.95,-381.52 87.58,-379.44 84.66,-377.28 82.21,-375.05 80.2,-372.76 78.64,-370.4 77.52,-368 76.82,-365.55 76.54,-363.06 76.67,-360.55 77.18,-358.02 78.07,-355.47 79.33,-352.92 80.93,-350.37 82.86,-347.83 85.1,-345.32 87.65,-342.83 90.47,-340.37 93.57,-337.96 96.92,-335.59 100.5,-333.28 104.31,-331.03 108.33,-328.86 112.55,-326.75 116.96,-324.73 121.54,-322.79 126.29,-320.95 131.19,-319.19 136.25,-317.54 141.45,-316 146.78,-314.56 152.25,-313.23 157.83,-312.02 163.54,-310.92 169.37,-309.95 175.3,-309.09 181.34,-308.35 187.49,-307.74 193.73,-307.25 200.08,-306.88 206.51,-306.64 213.03,-306.52 219.63,-306.53 226.31,-306.65 233.05,-306.9 239.86,-307.26 246.72,-307.75 253.61,-308.34 260.54,-309.05 267.49,-309.88 274.44,-310.8 281.38,-311.84 288.29,-312.97 295.15,-314.21 301.96,-315.54 308.68,-316.96 315.29,-318.47 321.78,-320.07 328.11,-321.74 334.28,-323.49 340.24,-325.32 345.98,-327.21 351.47,-329.16 356.69,-331.17 361.6,-333.24 366.19,-335.36 370.43,-337.52 374.3,-339.72 377.76,-341.96 380.8,-344.22 383.4,-346.51 385.54,-348.82 387.2,-351.14 388.36,-353.48 389,-355.81 389.13,-358.14 388.71,-360.46 387.76,-362.77 386.26,-365.06 384.21,-367.33 381.6,-369.56 378.46,-371.75 374.77,-373.91 370.55,-376.01 365.81,-378.06 360.57,-380.05 354.83,-381.97 348.63,-383.82 341.98,-385.6 334.91,-387.29 327.45,-388.9 319.62,-390.41 311.45,-391.82 302.98,-393.14 294.25,-394.34 285.29,-395.44 276.13,-396.42 266.82,-397.28 257.38,-398.02 247.87,-398.63"/>
<text text-anchor="middle" x="226.36" y="-348.62" font-family="sans-serif" font-size="16.00">DataIngestionContext</text>
</g>
<!-- DataCanonizationContext&#45;&gt;DataIngestionContext -->
<g id="edge4" class="edge">
<title>DataCanonizationContext&#45;&gt;DataIngestionContext</title>
<path fill="none" stroke="black" stroke-width="2" d="M308.18,-462.1C300.06,-453.36 291.76,-444.05 284.36,-435.04 274.87,-423.51 265.22,-410.53 256.57,-398.38"/>
<text text-anchor="middle" x="344.36" y="-423.64" font-family="sans-serif" font-size="12.00"> &#160;&#160;&#160;&#160;&#160;&#160;&#160;&#160;&#160;&#160;&#160;&#160;&#160;&#160;&#160;&#160;&#160;&#160;&#160;&#160;&#160;&#160;&#160;&#160;&#160;&#160;&#160;&#160;&#160;&#160;&#160;&#160;&#160;&#160;&#160;&#160;&#160;&#160;&#160;</text>
<polygon fill="white" stroke="none" points="250.07,-387.75 250.07,-409 263.07,-409 263.07,-387.75 250.07,-387.75"/>
<text text-anchor="start" x="252.07" y="-395.6" font-family="sans-serif" font-size="12.00">D</text>
<polygon fill="white" stroke="none" points="301.68,-451.47 301.68,-472.72 314.68,-472.72 314.68,-451.47 301.68,-451.47"/>
<text text-anchor="start" x="303.68" y="-459.32" font-family="sans-serif" font-size="12.00">U</text>
</g>
<!-- DataCanonizationContext&#45;&gt;AutomatizationContext -->
<g id="edge5" class="edge">
<title>DataCanonizationContext&#45;&gt;AutomatizationContext</title>
<path fill="none" stroke="black" stroke-width="2" d="M390.82,-460.11C396.29,-452.27 401.11,-443.78 404.36,-435.04 415.65,-404.62 417.86,-198.23 418.27,-101.6"/>
<text text-anchor="middle" x="476.02" y="-275.95" font-family="sans-serif" font-size="12.00"> &#160;&#160;&#160;&#160;&#160;&#160;&#160;&#160;&#160;&#160;&#160;&#160;&#160;&#160;&#160;&#160;&#160;&#160;&#160;&#160;&#160;&#160;&#160;&#160;&#160;&#160;&#160;&#160;&#160;&#160;&#160;&#160;&#160;&#160;&#160;&#160;&#160;&#160;&#160;</text>
<polygon fill="white" stroke="none" points="411.77,-90.97 411.77,-112.22 424.77,-112.22 424.77,-90.97 411.77,-90.97"/>
<text text-anchor="start" x="413.77" y="-98.82" font-family="sans-serif" font-size="12.00">D</text>
<polygon fill="white" stroke="none" points="384.32,-449.49 384.32,-470.74 397.32,-470.74 397.32,-449.49 384.32,-449.49"/>
<text text-anchor="start" x="386.32" y="-457.34" font-family="sans-serif" font-size="12.00">U</text>
</g>
<!-- DataAnonimizationContext -->
<g id="node4" class="node">
<title>DataAnonimizationContext</title>
<polygon fill="none" stroke="black" stroke-width="2" points="284.91,-163.5 294.87,-165.01 304.52,-166.63 313.83,-168.33 322.74,-170.13 331.24,-172.01 339.27,-173.96 346.81,-175.99 353.83,-178.07 360.29,-180.22 366.18,-182.41 371.48,-184.64 376.15,-186.9 380.2,-189.2 383.6,-191.52 386.34,-193.85 388.43,-196.2 389.85,-198.54 390.61,-200.89 390.71,-203.23 390.16,-205.55 388.97,-207.86 387.15,-210.14 384.71,-212.39 381.68,-214.61 378.08,-216.79 373.93,-218.93 369.25,-221.02 364.08,-223.06 358.43,-225.05 352.34,-226.98 345.85,-228.84 338.98,-230.65 331.76,-232.38 324.24,-234.05 316.43,-235.63 308.39,-237.15 300.13,-238.58 291.69,-239.93 283.1,-241.19 274.39,-242.37 265.6,-243.45 256.75,-244.44 247.87,-245.34 238.98,-246.14 230.11,-246.84 221.29,-247.44 212.52,-247.94 203.84,-248.33 195.26,-248.61 186.79,-248.78 178.46,-248.84 170.27,-248.79 162.23,-248.63 154.37,-248.35 146.67,-247.96 139.16,-247.45 131.84,-246.83 124.72,-246.09 117.8,-245.23 111.08,-244.26 104.57,-243.18 98.28,-241.98 92.2,-240.67 86.34,-239.25 80.7,-237.73 75.29,-236.1 70.12,-234.36 65.17,-232.54 60.47,-230.61 56.02,-228.6 51.82,-226.5 47.87,-224.33 44.2,-222.08 40.8,-219.76 37.68,-217.38 34.86,-214.94 32.35,-212.46 30.16,-209.94 28.29,-207.38 26.76,-204.8 25.59,-202.2 24.79,-199.6 24.37,-196.99 24.34,-194.4 24.72,-191.82 25.51,-189.26 26.74,-186.75 28.4,-184.27 30.52,-181.85 33.09,-179.48 36.13,-177.19 39.64,-174.97 43.63,-172.84 48.1,-170.8 53.05,-168.86 58.47,-167.02 64.37,-165.3 70.74,-163.69 77.56,-162.21 84.83,-160.86 92.53,-159.64 100.64,-158.55 109.16,-157.61 118.04,-156.81 127.28,-156.15 136.84,-155.65 146.7,-155.29 156.82,-155.07 167.16,-155.01 177.7,-155.09 188.4,-155.32 199.22,-155.7 210.11,-156.21 221.03,-156.87 231.95,-157.66 242.82,-158.58 253.59,-159.63 264.23,-160.81 274.68,-162.1 284.91,-163.5"/>
<text text-anchor="middle" x="195.36" y="-199.61" font-family="sans-serif" font-size="16.00">DataAnonimizationContext</text>
</g>
<!-- DataIngestionContext&#45;&gt;DataAnonimizationContext -->
<g id="edge6" class="edge">
<title>DataIngestionContext&#45;&gt;DataAnonimizationContext</title>
<path fill="none" stroke="black" stroke-width="2" d="M216.8,-306.26C212.94,-287.96 208.5,-266.9 204.67,-248.71"/>
<text text-anchor="middle" x="252.46" y="-275.95" font-family="sans-serif" font-size="12.00">Shared Kernel</text>
</g>
<!-- DataAnonimizationContext&#45;&gt;AutomatizationContext -->
<g id="edge7" class="edge">
<title>DataAnonimizationContext&#45;&gt;AutomatizationContext</title>
<path fill="none" stroke="black" stroke-width="2" d="M238.53,-157.83C252.46,-144.69 268.43,-130.87 284.36,-119.76 297.62,-110.51 312.31,-101.76 326.97,-93.81"/>
<text text-anchor="middle" x="344.36" y="-125.61" font-family="sans-serif" font-size="12.00"> &#160;&#160;&#160;&#160;&#160;&#160;&#160;&#160;&#160;&#160;&#160;&#160;&#160;&#160;&#160;&#160;&#160;&#160;&#160;&#160;&#160;&#160;&#160;&#160;&#160;&#160;&#160;&#160;&#160;&#160;&#160;&#160;&#160;&#160;&#160;&#160;&#160;&#160;&#160;</text>
<polygon fill="white" stroke="none" points="320.47,-83.18 320.47,-104.43 333.47,-104.43 333.47,-83.18 320.47,-83.18"/>
<text text-anchor="start" x="322.47" y="-91.03" font-family="sans-serif" font-size="12.00">D</text>
<polygon fill="white" stroke="none" points="232.03,-147.21 232.03,-168.46 245.03,-168.46 245.03,-147.21 232.03,-147.21"/>
<text text-anchor="start" x="234.03" y="-155.06" font-family="sans-serif" font-size="12.00">U</text>
</g>
<!-- APIManagementContext -->
<g id="node7" class="node">
<title>APIManagementContext</title>
<polygon fill="none" stroke="black" stroke-width="2" points="757.73,-831.61 752.42,-828.98 747.54,-826.31 743.1,-823.59 739.12,-820.86 735.62,-818.1 732.62,-815.35 730.13,-812.6 728.17,-809.86 726.73,-807.15 725.84,-804.47 725.5,-801.84 725.71,-799.25 726.47,-796.73 727.79,-794.27 729.65,-791.89 732.05,-789.58 734.99,-787.36 738.45,-785.23 742.42,-783.19 746.88,-781.25 751.83,-779.41 757.23,-777.68 763.07,-776.05 769.32,-774.53 775.96,-773.12 782.97,-771.82 790.32,-770.62 797.97,-769.54 805.91,-768.57 814.09,-767.71 822.49,-766.95 831.08,-766.3 839.82,-765.75 848.69,-765.31 857.65,-764.97 866.67,-764.72 875.72,-764.58 884.77,-764.53 893.79,-764.57 902.75,-764.71 911.62,-764.93 920.38,-765.24 929,-765.64 937.45,-766.13 945.72,-766.7 953.78,-767.35 961.61,-768.08 969.19,-768.89 976.5,-769.78 983.53,-770.76 990.27,-771.81 996.7,-772.94 1002.8,-774.14 1008.58,-775.42 1014.02,-776.78 1019.11,-778.22 1023.85,-779.73 1028.23,-781.31 1032.26,-782.97 1035.92,-784.7 1039.21,-786.5 1042.15,-788.37 1044.71,-790.31 1046.91,-792.32 1048.75,-794.39 1050.23,-796.51 1051.34,-798.7 1052.1,-800.94 1052.51,-803.23 1052.57,-805.56 1052.27,-807.93 1051.64,-810.34 1050.66,-812.78 1049.35,-815.23 1047.7,-817.71 1045.72,-820.19 1043.42,-822.67 1040.79,-825.15 1037.85,-827.61 1034.59,-830.05 1031.02,-832.45 1027.15,-834.81 1022.97,-837.12 1018.49,-839.38 1013.72,-841.56 1008.66,-843.67 1003.33,-845.69 997.71,-847.61 991.83,-849.43 985.69,-851.13 979.3,-852.72 972.66,-854.17 965.79,-855.49 958.7,-856.67 951.4,-857.69 943.9,-858.56 936.23,-859.27 928.38,-859.82 920.39,-860.2 912.26,-860.41 904.02,-860.45 895.69,-860.31 887.29,-860 878.83,-859.51 870.35,-858.86 861.87,-858.03 853.4,-857.04 844.99,-855.88 836.65,-854.56 828.41,-853.1 820.3,-851.48 812.35,-849.72 804.58,-847.83 797.03,-845.82 789.72,-843.69 782.67,-841.45 775.93,-839.11 769.5,-836.69 763.43,-834.18 757.73,-831.61"/>
<text text-anchor="middle" x="898.36" y="-804.84" font-family="sans-serif" font-size="16.00">APIManagementContext</text>
</g>
<!-- APIManagementContext&#45;&gt;AIModelDevelopmentContext -->
<g id="edge9" class="edge">
<title>APIManagementContext&#45;&gt;AIModelDevelopmentContext</title>
<path fill="none" stroke="black" stroke-width="2" d="M807.07,-767.98C756.71,-746.03 694.42,-718.86 644.28,-697"/>
<text text-anchor="middle" x="796.67" y="-727.59" font-family="sans-serif" font-size="12.00"> &#160;&#160;&#160;&#160;&#160;&#160;&#160;&#160;&#160;&#160;&#160;&#160;&#160;&#160;&#160;&#160;&#160;&#160;&#160;&#160;&#160;&#160;&#160;&#160;&#160;&#160;&#160;&#160;&#160;&#160;&#160;&#160;&#160;&#160;&#160;&#160;&#160;&#160;&#160;</text>
<polygon fill="white" stroke="none" points="637.78,-686.37 637.78,-707.62 650.78,-707.62 650.78,-686.37 637.78,-686.37"/>
<text text-anchor="start" x="639.78" y="-694.22" font-family="sans-serif" font-size="12.00">D</text>
<polygon fill="white" stroke="none" points="800.57,-757.36 800.57,-778.61 813.57,-778.61 813.57,-757.36 800.57,-757.36"/>
<text text-anchor="start" x="802.57" y="-765.21" font-family="sans-serif" font-size="12.00">U</text>
</g>
<!-- APIManagementContext&#45;&gt;InvestigationAndDevelopmentContext -->
<g id="edge8" class="edge">
<title>APIManagementContext&#45;&gt;InvestigationAndDevelopmentContext</title>
<path fill="none" stroke="black" stroke-width="2" d="M913.76,-764.63C925.94,-723.79 938.31,-661.26 921.36,-609.84 914.81,-590 902.86,-570.84 890.29,-554.5"/>
<text text-anchor="middle" x="989.65" y="-654.02" font-family="sans-serif" font-size="12.00"> &#160;&#160;&#160;&#160;&#160;&#160;&#160;&#160;&#160;&#160;&#160;&#160;&#160;&#160;&#160;&#160;&#160;&#160;&#160;&#160;&#160;&#160;&#160;&#160;&#160;&#160;&#160;&#160;&#160;&#160;&#160;&#160;&#160;&#160;&#160;&#160;&#160;&#160;&#160;</text>
<polygon fill="white" stroke="none" points="883.79,-543.87 883.79,-565.12 896.79,-565.12 896.79,-543.87 883.79,-543.87"/>
<text text-anchor="start" x="885.79" y="-551.72" font-family="sans-serif" font-size="12.00">D</text>
<polygon fill="white" stroke="none" points="907.26,-754 907.26,-775.25 920.26,-775.25 920.26,-754 907.26,-754"/>
<text text-anchor="start" x="909.26" y="-761.85" font-family="sans-serif" font-size="12.00">U</text>
</g>
<!-- DataSecurityAndPrivacyContext -->
<g id="node8" class="node">
<title>DataSecurityAndPrivacyContext</title>
<polygon fill="none" stroke="black" stroke-width="2" points="464.89,-833.9 458,-836.48 450.68,-838.98 442.98,-841.39 434.9,-843.69 426.49,-845.87 417.78,-847.93 408.78,-849.86 399.54,-851.64 390.08,-853.28 380.44,-854.76 370.64,-856.09 360.71,-857.25 350.69,-858.24 340.59,-859.06 330.45,-859.7 320.3,-860.17 310.16,-860.47 300.05,-860.59 290,-860.53 280.04,-860.3 270.19,-859.91 260.46,-859.35 250.88,-858.62 241.46,-857.74 232.24,-856.71 223.21,-855.54 214.41,-854.23 205.85,-852.79 197.53,-851.22 189.49,-849.54 181.72,-847.76 174.25,-845.87 167.09,-843.9 160.24,-841.85 153.72,-839.73 147.55,-837.55 141.73,-835.31 136.26,-833.03 131.18,-830.71 126.47,-828.36 122.15,-826 118.24,-823.62 114.74,-821.24 111.65,-818.85 109,-816.48 106.77,-814.12 105,-811.78 103.67,-809.47 102.8,-807.19 102.39,-804.94 102.46,-802.73 103,-800.56 104.02,-798.44 105.52,-796.37 107.51,-794.35 109.99,-792.37 112.96,-790.46 116.43,-788.6 120.38,-786.79 124.81,-785.05 129.73,-783.36 135.13,-781.74 141,-780.17 147.33,-778.67 154.11,-777.23 161.32,-775.86 168.97,-774.55 177.03,-773.3 185.48,-772.12 194.3,-771.01 203.48,-769.98 212.99,-769.01 222.8,-768.11 232.9,-767.29 243.25,-766.55 253.82,-765.89 264.58,-765.31 275.51,-764.82 286.56,-764.41 297.71,-764.1 308.92,-763.88 320.14,-763.76 331.35,-763.74 342.51,-763.82 353.58,-764.01 364.52,-764.31 375.29,-764.72 385.86,-765.25 396.18,-765.89 406.23,-766.66 415.97,-767.54 425.36,-768.55 434.36,-769.68 442.95,-770.94 451.1,-772.31 458.77,-773.81 465.94,-775.44 472.59,-777.18 478.69,-779.04 484.21,-781.01 489.15,-783.09 493.48,-785.28 497.19,-787.56 500.28,-789.95 502.72,-792.41 504.53,-794.96 505.68,-797.59 506.19,-800.27 506.05,-803.02 505.28,-805.8 503.86,-808.63 501.83,-811.48 499.18,-814.35 495.93,-817.22 492.1,-820.08 487.7,-822.92 482.76,-825.74 477.29,-828.52 471.33,-831.24 464.89,-833.9"/>
<text text-anchor="middle" x="296.36" y="-804.84" font-family="sans-serif" font-size="16.00">DataSecurityAndPrivacyContext</text>
</g>
<!-- DataSecurityAndPrivacyContext&#45;&gt;AIModelDevelopmentContext -->
<g id="edge12" class="edge">
<title>DataSecurityAndPrivacyContext&#45;&gt;AIModelDevelopmentContext</title>
<path fill="none" stroke="black" stroke-width="2" d="M371.33,-764.2C407.18,-743.35 449.84,-718.56 484.94,-698.15"/>
<text text-anchor="middle" x="500.8" y="-727.59" font-family="sans-serif" font-size="12.00"> &#160;&#160;&#160;&#160;&#160;&#160;&#160;&#160;&#160;&#160;&#160;&#160;&#160;&#160;&#160;&#160;&#160;&#160;&#160;&#160;&#160;&#160;&#160;&#160;&#160;&#160;&#160;&#160;&#160;&#160;&#160;&#160;&#160;&#160;&#160;&#160;&#160;&#160;&#160;</text>
<polygon fill="white" stroke="none" points="478.44,-687.52 478.44,-708.77 491.44,-708.77 491.44,-687.52 478.44,-687.52"/>
<text text-anchor="start" x="480.44" y="-695.37" font-family="sans-serif" font-size="12.00">D</text>
<polygon fill="white" stroke="none" points="364.83,-753.58 364.83,-774.83 377.83,-774.83 377.83,-753.58 364.83,-753.58"/>
<text text-anchor="start" x="366.83" y="-761.43" font-family="sans-serif" font-size="12.00">U</text>
</g>
<!-- DataSecurityAndPrivacyContext&#45;&gt;DataCanonizationContext -->
<g id="edge10" class="edge">
<title>DataSecurityAndPrivacyContext&#45;&gt;DataCanonizationContext</title>
<path fill="none" stroke="black" stroke-width="2" d="M254.78,-765.36C240.32,-747.77 225.85,-726.23 218.36,-703.74 205.16,-664.15 200.21,-647.42 218.36,-609.84 230.04,-585.65 250.38,-565.36 271.6,-549.31"/>
<text text-anchor="middle" x="278.36" y="-654.02" font-family="sans-serif" font-size="12.00"> &#160;&#160;&#160;&#160;&#160;&#160;&#160;&#160;&#160;&#160;&#160;&#160;&#160;&#160;&#160;&#160;&#160;&#160;&#160;&#160;&#160;&#160;&#160;&#160;&#160;&#160;&#160;&#160;&#160;&#160;&#160;&#160;&#160;&#160;&#160;&#160;&#160;&#160;&#160;</text>
<polygon fill="white" stroke="none" points="265.1,-538.69 265.1,-559.94 278.1,-559.94 278.1,-538.69 265.1,-538.69"/>
<text text-anchor="start" x="267.1" y="-546.54" font-family="sans-serif" font-size="12.00">D</text>
<polygon fill="white" stroke="none" points="248.28,-754.74 248.28,-775.99 261.28,-775.99 261.28,-754.74 248.28,-754.74"/>
<text text-anchor="start" x="250.28" y="-762.59" font-family="sans-serif" font-size="12.00">U</text>
</g>
<!-- DataSecurityAndPrivacyContext&#45;&gt;DataAnonimizationContext -->
<g id="edge11" class="edge">
<title>DataSecurityAndPrivacyContext&#45;&gt;DataAnonimizationContext</title>
<path fill="none" stroke="black" stroke-width="2" d="M149.65,-777.8C89.79,-756.18 34.36,-719.51 34.36,-657.79 34.36,-657.79 34.36,-657.79 34.36,-351.57 34.36,-304.83 71.83,-268.97 110.61,-244.37"/>
<text text-anchor="middle" x="94.36" y="-502.04" font-family="sans-serif" font-size="12.00"> &#160;&#160;&#160;&#160;&#160;&#160;&#160;&#160;&#160;&#160;&#160;&#160;&#160;&#160;&#160;&#160;&#160;&#160;&#160;&#160;&#160;&#160;&#160;&#160;&#160;&#160;&#160;&#160;&#160;&#160;&#160;&#160;&#160;&#160;&#160;&#160;&#160;&#160;&#160;</text>
<polygon fill="white" stroke="none" points="104.11,-233.75 104.11,-255 117.11,-255 117.11,-233.75 104.11,-233.75"/>
<text text-anchor="start" x="106.11" y="-241.6" font-family="sans-serif" font-size="12.00">D</text>
<polygon fill="white" stroke="none" points="143.15,-767.17 143.15,-788.42 156.15,-788.42 156.15,-767.17 143.15,-767.17"/>
<text text-anchor="start" x="145.15" y="-775.02" font-family="sans-serif" font-size="12.00">U</text>
</g>
<!-- DataSecurityAndPrivacyContext&#45;&gt;InvestigationAndDevelopmentContext -->
<g id="edge13" class="edge">
<title>DataSecurityAndPrivacyContext&#45;&gt;InvestigationAndDevelopmentContext</title>
<path fill="none" stroke="black" stroke-width="2" d="M493.7,-784.98C605.05,-768.26 729.8,-741.78 770.36,-703.74 802.02,-674.03 782.38,-650.6 797.36,-609.84 804.29,-590.96 813.12,-570.7 821.24,-553.12"/>
<text text-anchor="middle" x="857.36" y="-654.02" font-family="sans-serif" font-size="12.00"> &#160;&#160;&#160;&#160;&#160;&#160;&#160;&#160;&#160;&#160;&#160;&#160;&#160;&#160;&#160;&#160;&#160;&#160;&#160;&#160;&#160;&#160;&#160;&#160;&#160;&#160;&#160;&#160;&#160;&#160;&#160;&#160;&#160;&#160;&#160;&#160;&#160;&#160;&#160;</text>
<polygon fill="white" stroke="none" points="814.74,-542.5 814.74,-563.75 827.74,-563.75 827.74,-542.5 814.74,-542.5"/>
<text text-anchor="start" x="816.74" y="-550.35" font-family="sans-serif" font-size="12.00">D</text>
<polygon fill="white" stroke="none" points="487.2,-774.35 487.2,-795.6 500.2,-795.6 500.2,-774.35 487.2,-774.35"/>
<text text-anchor="start" x="489.2" y="-782.2" font-family="sans-serif" font-size="12.00">U</text>
</g>
<!-- SalesManagementContext -->
<g id="node9" class="node">
<title>SalesManagementContext</title>
<polygon fill="none" stroke="black" stroke-width="2" points="832.55,-1004.34 822.19,-1003.21 812.06,-1001.97 802.23,-1000.62 792.72,-999.17 783.58,-997.62 774.84,-995.98 766.54,-994.26 758.72,-992.45 751.4,-990.57 744.6,-988.62 738.36,-986.6 732.7,-984.53 727.63,-982.4 723.17,-980.23 719.33,-978.02 716.13,-975.78 713.56,-973.51 711.63,-971.21 710.34,-968.9 709.68,-966.58 709.65,-964.25 710.24,-961.93 711.43,-959.61 713.22,-957.3 715.57,-955.01 718.48,-952.73 721.92,-950.49 725.86,-948.28 730.28,-946.1 735.16,-943.97 740.46,-941.88 746.16,-939.84 752.22,-937.86 758.62,-935.93 765.33,-934.07 772.31,-932.28 779.54,-930.56 786.98,-928.91 794.6,-927.34 802.39,-925.85 810.3,-924.45 818.32,-923.15 826.42,-921.93 834.57,-920.81 842.76,-919.79 850.95,-918.87 859.14,-918.06 867.31,-917.35 875.43,-916.76 883.5,-916.27 891.49,-915.9 899.41,-915.65 907.23,-915.52 914.95,-915.5 922.56,-915.6 930.06,-915.83 937.43,-916.18 944.67,-916.65 951.77,-917.24 958.74,-917.95 965.56,-918.79 972.24,-919.74 978.77,-920.81 985.13,-922 991.34,-923.31 997.39,-924.72 1003.26,-926.25 1008.95,-927.87 1014.47,-929.61 1019.79,-931.43 1024.91,-933.36 1029.82,-935.37 1034.51,-937.46 1038.97,-939.63 1043.18,-941.87 1047.14,-944.18 1050.83,-946.54 1054.23,-948.96 1057.34,-951.42 1060.12,-953.92 1062.58,-956.45 1064.68,-959 1066.42,-961.57 1067.78,-964.14 1068.73,-966.7 1069.27,-969.26 1069.38,-971.8 1069.04,-974.31 1068.24,-976.79 1066.97,-979.23 1065.21,-981.61 1062.96,-983.93 1060.2,-986.19 1056.94,-988.38 1053.17,-990.49 1048.88,-992.5 1044.08,-994.43 1038.77,-996.25 1032.96,-997.97 1026.65,-999.58 1019.85,-1001.07 1012.59,-1002.44 1004.87,-1003.69 996.72,-1004.81 988.15,-1005.8 979.2,-1006.66 969.89,-1007.38 960.25,-1007.96 950.32,-1008.41 940.12,-1008.71 929.7,-1008.88 919.09,-1008.91 908.34,-1008.8 897.48,-1008.55 886.55,-1008.17 875.61,-1007.66 864.7,-1007.02 853.86,-1006.25 843.13,-1005.35 832.55,-1004.34"/>
<text text-anchor="middle" x="898.36" y="-957.42" font-family="sans-serif" font-size="16.00">SalesManagementContext</text>
</g>
<!-- SalesManagementContext&#45;&gt;APIManagementContext -->
<g id="edge14" class="edge">
<title>SalesManagementContext&#45;&gt;APIManagementContext</title>
<path fill="none" stroke="black" stroke-width="2" d="M898.36,-915.19C898.36,-898.04 898.36,-878.39 898.36,-860.74"/>
<text text-anchor="middle" x="958.36" y="-884.44" font-family="sans-serif" font-size="12.00"> &#160;&#160;&#160;&#160;&#160;&#160;&#160;&#160;&#160;&#160;&#160;&#160;&#160;&#160;&#160;&#160;&#160;&#160;&#160;&#160;&#160;&#160;&#160;&#160;&#160;&#160;&#160;&#160;&#160;&#160;&#160;&#160;&#160;&#160;&#160;&#160;&#160;&#160;&#160;</text>
<polygon fill="white" stroke="none" points="891.86,-850.11 891.86,-871.36 904.86,-871.36 904.86,-850.11 891.86,-850.11"/>
<text text-anchor="start" x="893.86" y="-857.96" font-family="sans-serif" font-size="12.00">D</text>
<polygon fill="white" stroke="none" points="891.86,-904.57 891.86,-925.82 904.86,-925.82 904.86,-904.57 891.86,-904.57"/>
<text text-anchor="start" x="893.86" y="-912.42" font-family="sans-serif" font-size="12.00">U</text>
</g>
</g>
</svg>
