<svg width="2000px" height="1025px"
 viewBox="0.00 0.00 1414.78 724.70" xmlns="http://www.w3.org/2000/svg" xmlns:xlink="http://www.w3.org/1999/xlink">
<g id="graph0" class="graph" transform="scale(1.0 1.0) rotate(0) translate(4 720.7)">
<title>ContextMapGraph</title>
<polygon fill="white" stroke="none" points="-4,4 -4,-720.7 1410.78,-720.7 1410.78,4 -4,4"/>
<!-- AIModelDevelopmentContext -->
<g id="node1" class="node">
<title>AIModelDevelopmentContext</title>
<polygon fill="none" stroke="black" stroke-width="2" points="520.75,-394.3 511.98,-392.16 503.65,-389.94 495.78,-387.65 488.4,-385.3 481.55,-382.91 475.26,-380.47 469.55,-378 464.45,-375.5 459.98,-372.99 456.16,-370.47 453.01,-367.95 450.53,-365.44 448.74,-362.94 447.64,-360.47 447.25,-358.03 447.54,-355.62 448.53,-353.26 450.21,-350.94 452.56,-348.67 455.57,-346.47 459.23,-344.32 463.52,-342.24 468.42,-340.23 473.89,-338.3 479.93,-336.44 486.49,-334.66 493.55,-332.96 501.07,-331.34 509.02,-329.81 517.37,-328.36 526.08,-327.01 535.11,-325.74 544.43,-324.56 554,-323.46 563.78,-322.47 573.73,-321.56 583.81,-320.74 594,-320.02 604.25,-319.38 614.53,-318.85 624.8,-318.4 635.04,-318.05 645.21,-317.79 655.29,-317.63 665.24,-317.56 675.04,-317.58 684.66,-317.71 694.09,-317.93 703.31,-318.24 712.28,-318.66 721.01,-319.17 729.46,-319.78 737.64,-320.49 745.52,-321.29 753.1,-322.2 760.37,-323.21 767.32,-324.31 773.94,-325.51 780.24,-326.82 786.2,-328.21 791.82,-329.71 797.1,-331.3 802.04,-332.98 806.64,-334.75 810.89,-336.61 814.8,-338.56 818.36,-340.58 821.57,-342.69 824.43,-344.87 826.95,-347.12 829.11,-349.43 830.92,-351.81 832.38,-354.23 833.47,-356.7 834.21,-359.22 834.58,-361.76 834.58,-364.33 834.21,-366.92 833.47,-369.52 832.34,-372.11 830.83,-374.7 828.92,-377.27 826.62,-379.82 823.93,-382.33 820.83,-384.79 817.32,-387.21 813.4,-389.56 809.07,-391.83 804.32,-394.03 799.17,-396.13 793.6,-398.14 787.62,-400.04 781.23,-401.83 774.45,-403.49 767.27,-405.03 759.7,-406.43 751.76,-407.69 743.46,-408.81 734.82,-409.77 725.84,-410.58 716.56,-411.23 706.99,-411.72 697.15,-412.05 687.08,-412.21 676.79,-412.21 666.33,-412.04 655.71,-411.72 644.97,-411.23 634.16,-410.58 623.29,-409.77 612.42,-408.82 601.58,-407.72 590.81,-406.47 580.14,-405.09 569.63,-403.58 559.31,-401.94 549.22,-400.19 539.4,-398.32 529.9,-396.36 520.75,-394.3"/>
<text text-anchor="middle" x="655.87" y="-357.8" font-family="sans-serif" font-size="16.00">AIModelDevelopmentContext</text>
</g>
<!-- DataCanonizationContext -->
<g id="node2" class="node">
<title>DataCanonizationContext</title>
<polygon fill="none" stroke="black" stroke-width="2" points="1132.8,-221.85 1129.45,-224.75 1125.68,-227.59 1121.51,-230.35 1116.95,-233.04 1112.01,-235.63 1106.72,-238.12 1101.08,-240.49 1095.13,-242.74 1088.86,-244.86 1082.31,-246.85 1075.5,-248.68 1068.44,-250.37 1061.15,-251.89 1053.65,-253.26 1045.97,-254.45 1038.13,-255.48 1030.14,-256.34 1022.02,-257.02 1013.81,-257.53 1005.51,-257.87 997.15,-258.04 988.75,-258.05 980.33,-257.88 971.91,-257.56 963.51,-257.08 955.15,-256.45 946.84,-255.67 938.62,-254.75 930.5,-253.7 922.5,-252.53 914.63,-251.23 906.91,-249.83 899.37,-248.32 892.01,-246.71 884.86,-245.02 877.94,-243.25 871.25,-241.4 864.82,-239.5 858.66,-237.53 852.79,-235.52 847.22,-233.47 841.97,-231.38 837.04,-229.27 832.46,-227.13 828.23,-224.98 824.37,-222.81 820.88,-220.65 817.79,-218.48 815.09,-216.31 812.8,-214.15 810.93,-212 809.48,-209.87 808.46,-207.76 807.87,-205.66 807.73,-203.58 808.03,-201.53 808.78,-199.5 809.97,-197.5 811.61,-195.53 813.7,-193.59 816.23,-191.68 819.2,-189.8 822.61,-187.95 826.44,-186.14 830.7,-184.36 835.37,-182.62 840.45,-180.91 845.91,-179.25 851.76,-177.63 857.97,-176.06 864.52,-174.54 871.41,-173.06 878.61,-171.64 886.11,-170.28 893.87,-168.98 901.89,-167.74 910.14,-166.57 918.6,-165.48 927.23,-164.46 936.02,-163.53 944.94,-162.69 953.97,-161.94 963.06,-161.29 972.21,-160.74 981.37,-160.3 990.53,-159.98 999.65,-159.77 1008.7,-159.69 1017.66,-159.73 1026.5,-159.91 1035.18,-160.22 1043.7,-160.67 1052,-161.26 1060.08,-161.99 1067.91,-162.87 1075.46,-163.9 1082.7,-165.07 1089.62,-166.38 1096.2,-167.84 1102.41,-169.44 1108.24,-171.19 1113.67,-173.06 1118.68,-175.07 1123.27,-177.21 1127.41,-179.47 1131.09,-181.84 1134.32,-184.32 1137.08,-186.9 1139.35,-189.57 1141.15,-192.32 1142.46,-195.14 1143.29,-198.02 1143.64,-200.95 1143.5,-203.92 1142.88,-206.91 1141.78,-209.92 1140.22,-212.93 1138.19,-215.93 1135.72,-218.91 1132.8,-221.85"/>
<text text-anchor="middle" x="973.87" y="-203.02" font-family="sans-serif" font-size="16.00">DataCanonizationContext</text>
</g>
<!-- AIModelDevelopmentContext&#45;&gt;DataCanonizationContext -->
<g id="edge1" class="edge">
<title>AIModelDevelopmentContext&#45;&gt;DataCanonizationContext</title>
<path fill="none" stroke="black" stroke-width="2" d="M739.84,-320.41C786.94,-297.78 845.45,-269.67 892.18,-247.22"/>
<text text-anchor="middle" x="884.41" y="-281.9" font-family="sans-serif" font-size="12.00"> &#160;&#160;&#160;&#160;&#160;&#160;&#160;&#160;&#160;&#160;&#160;&#160;&#160;&#160;&#160;&#160;&#160;&#160;&#160;&#160;&#160;&#160;&#160;&#160;&#160;&#160;&#160;&#160;&#160;&#160;&#160;&#160;&#160;&#160;&#160;&#160;&#160;&#160;&#160;</text>
<polygon fill="white" stroke="none" points="885.68,-236.59 885.68,-257.84 898.68,-257.84 898.68,-236.59 885.68,-236.59"/>
<text text-anchor="start" x="887.68" y="-244.44" font-family="sans-serif" font-size="12.00">D</text>
<polygon fill="white" stroke="none" points="733.34,-309.79 733.34,-331.04 746.34,-331.04 746.34,-309.79 733.34,-309.79"/>
<text text-anchor="start" x="735.34" y="-317.64" font-family="sans-serif" font-size="12.00">U</text>
</g>
<!-- ServiceResearchContext -->
<g id="node4" class="node">
<title>ServiceResearchContext</title>
<polygon fill="none" stroke="black" stroke-width="2" points="227.04,-163.12 236.82,-164.1 246.4,-165.2 255.73,-166.4 264.77,-167.72 273.49,-169.13 281.86,-170.64 289.83,-172.25 297.38,-173.94 304.49,-175.72 311.11,-177.57 317.24,-179.49 322.84,-181.48 327.9,-183.53 332.41,-185.63 336.35,-187.79 339.71,-189.98 342.49,-192.22 344.68,-194.48 346.28,-196.77 347.3,-199.08 347.74,-201.4 347.61,-203.73 346.92,-206.07 345.68,-208.4 343.91,-210.72 341.63,-213.03 338.85,-215.32 335.6,-217.58 331.9,-219.82 327.77,-222.02 323.25,-224.18 318.34,-226.3 313.09,-228.37 307.52,-230.38 301.65,-232.33 295.52,-234.23 289.15,-236.05 282.57,-237.8 275.8,-239.47 268.87,-241.07 261.81,-242.58 254.63,-244 247.36,-245.33 240.03,-246.57 232.64,-247.7 225.23,-248.74 217.81,-249.67 210.39,-250.49 202.99,-251.2 195.62,-251.79 188.3,-252.28 181.03,-252.64 173.82,-252.89 166.69,-253.01 159.64,-253.02 152.67,-252.9 145.8,-252.66 139.03,-252.29 132.35,-251.8 125.79,-251.19 119.33,-250.45 112.99,-249.59 106.77,-248.62 100.68,-247.52 94.71,-246.31 88.87,-244.98 83.17,-243.54 77.62,-242 72.22,-240.35 66.98,-238.6 61.91,-236.75 57.01,-234.81 52.3,-232.79 47.8,-230.69 43.5,-228.51 39.43,-226.26 35.6,-223.95 32.03,-221.58 28.72,-219.17 25.7,-216.71 22.99,-214.22 20.59,-211.71 18.53,-209.17 16.82,-206.62 15.48,-204.07 14.53,-201.53 13.97,-198.99 13.84,-196.48 14.14,-193.99 14.88,-191.54 16.08,-189.14 17.75,-186.78 19.89,-184.49 22.52,-182.26 25.63,-180.1 29.23,-178.03 33.33,-176.03 37.91,-174.14 42.98,-172.34 48.52,-170.64 54.54,-169.05 61.01,-167.58 67.92,-166.22 75.25,-164.99 82.99,-163.88 91.11,-162.9 99.59,-162.05 108.39,-161.33 117.49,-160.74 126.86,-160.29 136.46,-159.97 146.26,-159.79 156.22,-159.75 166.3,-159.84 176.46,-160.07 186.66,-160.42 196.86,-160.91 207.02,-161.52 217.09,-162.26 227.04,-163.12"/>
<text text-anchor="middle" x="173.87" y="-203.02" font-family="sans-serif" font-size="16.00">ServiceResearchContext</text>
</g>
<!-- AIModelDevelopmentContext&#45;&gt;ServiceResearchContext -->
<g id="edge2" class="edge">
<title>AIModelDevelopmentContext&#45;&gt;ServiceResearchContext</title>
<path fill="none" stroke="black" stroke-width="2" d="M541.34,-324.45C460.32,-298.77 352.69,-264.65 274.87,-239.98"/>
<text text-anchor="middle" x="489.32" y="-281.9" font-family="sans-serif" font-size="12.00"> &#160;&#160;&#160;&#160;&#160;&#160;&#160;&#160;&#160;&#160;&#160;&#160;&#160;&#160;&#160;&#160;&#160;&#160;&#160;&#160;&#160;&#160;&#160;&#160;&#160;&#160;&#160;&#160;&#160;&#160;&#160;&#160;&#160;&#160;&#160;&#160;&#160;&#160;&#160;</text>
<polygon fill="white" stroke="none" points="268.37,-229.36 268.37,-250.61 281.37,-250.61 281.37,-229.36 268.37,-229.36"/>
<text text-anchor="start" x="270.37" y="-237.21" font-family="sans-serif" font-size="12.00">D</text>
<polygon fill="white" stroke="none" points="534.84,-313.82 534.84,-335.07 547.84,-335.07 547.84,-313.82 534.84,-313.82"/>
<text text-anchor="start" x="536.84" y="-321.67" font-family="sans-serif" font-size="12.00">U</text>
</g>
<!-- SaludTechPlatformDevelopmentContext -->
<g id="node3" class="node">
<title>SaludTechPlatformDevelopmentContext</title>
<polygon fill="none" stroke="black" stroke-width="2" points="834.93,-85.17 823.46,-87.29 811.6,-89.31 799.4,-91.21 786.89,-92.98 774.14,-94.63 761.17,-96.13 748.05,-97.5 734.81,-98.71 721.51,-99.77 708.17,-100.66 694.86,-101.4 681.6,-101.96 668.45,-102.36 655.42,-102.59 642.57,-102.64 629.92,-102.53 617.51,-102.24 605.37,-101.79 593.51,-101.17 581.98,-100.39 570.79,-99.45 559.96,-98.36 549.51,-97.12 539.46,-95.73 529.82,-94.22 520.6,-92.57 511.83,-90.8 503.5,-88.92 495.62,-86.93 488.21,-84.85 481.27,-82.68 474.79,-80.44 468.8,-78.12 463.28,-75.74 458.25,-73.32 453.7,-70.85 449.63,-68.35 446.05,-65.83 442.96,-63.3 440.36,-60.76 438.25,-58.22 436.63,-55.69 435.51,-53.18 434.88,-50.69 434.74,-48.24 435.11,-45.83 435.97,-43.46 437.34,-41.14 439.21,-38.88 441.58,-36.67 444.47,-34.53 447.87,-32.46 451.78,-30.46 456.2,-28.53 461.14,-26.68 466.59,-24.91 472.55,-23.22 479.03,-21.61 486.01,-20.08 493.49,-18.64 501.48,-17.28 509.95,-16 518.9,-14.82 528.32,-13.71 538.2,-12.7 548.51,-11.77 559.26,-10.93 570.4,-10.18 581.93,-9.51 593.81,-8.93 606.02,-8.44 618.54,-8.03 631.32,-7.72 644.35,-7.49 657.57,-7.35 670.96,-7.3 684.47,-7.35 698.06,-7.48 711.7,-7.71 725.32,-8.04 738.9,-8.45 752.38,-8.97 765.71,-9.58 778.84,-10.29 791.73,-11.09 804.33,-12 816.59,-13.01 828.47,-14.11 839.9,-15.32 850.85,-16.63 861.28,-18.03 871.14,-19.54 880.39,-21.14 888.99,-22.84 896.9,-24.64 904.1,-26.53 910.55,-28.5 916.22,-30.57 921.09,-32.71 925.14,-34.94 928.35,-37.24 930.71,-39.6 932.21,-42.03 932.84,-44.51 932.6,-47.05 931.5,-49.62 929.53,-52.23 926.72,-54.87 923.07,-57.52 918.6,-60.18 913.33,-62.84 907.28,-65.5 900.49,-68.13 892.99,-70.73 884.8,-73.29 875.96,-75.81 866.51,-78.26 856.5,-80.65 845.95,-82.95 834.93,-85.17"/>
<text text-anchor="middle" x="666.87" y="-47.37" font-family="sans-serif" font-size="16.00">SaludTechPlatformDevelopmentContext</text>
</g>
<!-- DataCanonizationContext&#45;&gt;SaludTechPlatformDevelopmentContext -->
<g id="edge3" class="edge">
<title>DataCanonizationContext&#45;&gt;SaludTechPlatformDevelopmentContext</title>
<path fill="none" stroke="black" stroke-width="2" d="M897.98,-167.99C855.1,-146.53 801.26,-119.58 756.33,-97.09"/>
<text text-anchor="middle" x="889.58" y="-126.49" font-family="sans-serif" font-size="12.00"> &#160;&#160;&#160;&#160;&#160;&#160;&#160;&#160;&#160;&#160;&#160;&#160;&#160;&#160;&#160;&#160;&#160;&#160;&#160;&#160;&#160;&#160;&#160;&#160;&#160;&#160;&#160;&#160;&#160;&#160;&#160;&#160;&#160;&#160;&#160;&#160;&#160;&#160;&#160;</text>
<polygon fill="white" stroke="none" points="749.83,-86.47 749.83,-107.72 762.83,-107.72 762.83,-86.47 749.83,-86.47"/>
<text text-anchor="start" x="751.83" y="-94.32" font-family="sans-serif" font-size="12.00">D</text>
<polygon fill="white" stroke="none" points="865.36,-156.36 865.36,-179.61 880.36,-179.61 880.36,-156.36 865.36,-156.36"/>
<polyline fill="none" stroke="black" points="880.36,-156.36 880.36,-179.61"/>
<text text-anchor="start" x="868.36" y="-165.21" font-family="sans-serif" font-size="12.00">U</text>
<polygon fill="white" stroke="none" points="880.36,-156.36 880.36,-179.61 930.61,-179.61 930.61,-156.36 880.36,-156.36"/>
<polygon fill="none" stroke="black" points="880.36,-156.36 880.36,-179.61 930.61,-179.61 930.61,-156.36 880.36,-156.36"/>
<text text-anchor="start" x="883.36" y="-165.21" font-family="sans-serif" font-size="12.00">OHS, PL</text>
</g>
<!-- AutomatizationContext -->
<g id="node5" class="node">
<title>AutomatizationContext</title>
<polygon fill="none" stroke="black" stroke-width="2" points="1224.86,-628.1 1233.65,-629.61 1242.16,-631.22 1250.37,-632.93 1258.23,-634.73 1265.72,-636.61 1272.81,-638.56 1279.46,-640.58 1285.65,-642.67 1291.35,-644.81 1296.55,-647 1301.22,-649.23 1305.34,-651.5 1308.91,-653.8 1311.91,-656.11 1314.33,-658.45 1316.17,-660.79 1317.42,-663.14 1318.09,-665.49 1318.18,-667.82 1317.7,-670.15 1316.64,-672.45 1315.04,-674.73 1312.89,-676.99 1310.22,-679.2 1307.04,-681.39 1303.38,-683.52 1299.25,-685.62 1294.69,-687.66 1289.71,-689.64 1284.34,-691.57 1278.61,-693.44 1272.55,-695.24 1266.19,-696.98 1259.55,-698.64 1252.67,-700.23 1245.57,-701.74 1238.28,-703.17 1230.84,-704.52 1223.26,-705.79 1215.59,-706.96 1207.83,-708.05 1200.02,-709.04 1192.19,-709.94 1184.35,-710.74 1176.53,-711.44 1168.74,-712.04 1161.01,-712.53 1153.35,-712.92 1145.78,-713.2 1138.32,-713.38 1130.97,-713.44 1123.74,-713.39 1116.66,-713.23 1109.72,-712.95 1102.93,-712.56 1096.31,-712.05 1089.85,-711.42 1083.57,-710.68 1077.46,-709.83 1071.54,-708.86 1065.8,-707.77 1060.24,-706.58 1054.88,-705.27 1049.71,-703.85 1044.74,-702.32 1039.97,-700.69 1035.41,-698.96 1031.05,-697.13 1026.9,-695.21 1022.97,-693.2 1019.26,-691.1 1015.79,-688.92 1012.54,-686.67 1009.55,-684.35 1006.8,-681.97 1004.31,-679.54 1002.1,-677.06 1000.16,-674.53 998.51,-671.98 997.17,-669.4 996.14,-666.8 995.43,-664.19 995.06,-661.59 995.03,-658.99 995.36,-656.41 996.06,-653.86 997.14,-651.34 998.61,-648.87 1000.48,-646.44 1002.75,-644.08 1005.43,-641.79 1008.53,-639.57 1012.05,-637.44 1015.99,-635.39 1020.35,-633.45 1025.14,-631.62 1030.34,-629.89 1035.95,-628.29 1041.97,-626.81 1048.38,-625.45 1055.17,-624.23 1062.33,-623.15 1069.84,-622.21 1077.68,-621.41 1085.83,-620.75 1094.26,-620.24 1102.95,-619.88 1111.88,-619.67 1121.01,-619.61 1130.3,-619.69 1139.74,-619.92 1149.28,-620.29 1158.88,-620.81 1168.52,-621.46 1178.15,-622.26 1187.73,-623.18 1197.24,-624.23 1206.62,-625.4 1215.84,-626.69 1224.86,-628.1"/>
<text text-anchor="middle" x="1145.87" y="-664.2" font-family="sans-serif" font-size="16.00">AutomatizationContext</text>
</g>
<!-- AutomatizationContext&#45;&gt;DataCanonizationContext -->
<g id="edge4" class="edge">
<title>AutomatizationContext&#45;&gt;DataCanonizationContext</title>
<path fill="none" stroke="black" stroke-width="2" d="M1221.72,-627.33C1243.97,-611.55 1265.6,-591.17 1277.87,-566.36 1290.72,-540.39 1289.63,-331.54 1274.87,-311.3 1240.95,-264.75 1184.74,-238.98 1130.02,-224.78"/>
<text text-anchor="middle" x="1346.78" y="-436.06" font-family="sans-serif" font-size="12.00"> &#160;&#160;&#160;&#160;&#160;&#160;&#160;&#160;&#160;&#160;&#160;&#160;&#160;&#160;&#160;&#160;&#160;&#160;&#160;&#160;&#160;&#160;&#160;&#160;&#160;&#160;&#160;&#160;&#160;&#160;&#160;&#160;&#160;&#160;&#160;&#160;&#160;&#160;&#160;</text>
<polygon fill="white" stroke="none" points="1123.52,-214.15 1123.52,-235.4 1136.52,-235.4 1136.52,-214.15 1123.52,-214.15"/>
<text text-anchor="start" x="1125.52" y="-222" font-family="sans-serif" font-size="12.00">D</text>
<polygon fill="white" stroke="none" points="1215.22,-616.7 1215.22,-637.95 1228.22,-637.95 1228.22,-616.7 1215.22,-616.7"/>
<text text-anchor="start" x="1217.22" y="-624.55" font-family="sans-serif" font-size="12.00">U</text>
</g>
<!-- DataAnonimizationContext -->
<g id="node6" class="node">
<title>DataAnonimizationContext</title>
<polygon fill="none" stroke="black" stroke-width="2" points="1121.25,-316.92 1132.35,-317.7 1143.25,-318.59 1153.9,-319.61 1164.27,-320.73 1174.31,-321.96 1183.98,-323.3 1193.24,-324.74 1202.05,-326.27 1210.39,-327.9 1218.22,-329.61 1225.51,-331.4 1232.24,-333.27 1238.39,-335.21 1243.94,-337.22 1248.87,-339.28 1253.18,-341.4 1256.84,-343.57 1259.87,-345.79 1262.25,-348.04 1263.99,-350.32 1265.09,-352.63 1265.55,-354.96 1265.4,-357.3 1264.65,-359.65 1263.3,-362 1261.37,-364.35 1258.9,-366.7 1255.89,-369.02 1252.38,-371.33 1248.39,-373.61 1243.94,-375.86 1239.06,-378.07 1233.79,-380.24 1228.14,-382.36 1222.16,-384.43 1215.86,-386.45 1209.28,-388.39 1202.44,-390.28 1195.38,-392.09 1188.12,-393.82 1180.69,-395.47 1173.11,-397.04 1165.41,-398.51 1157.61,-399.9 1149.73,-401.18 1141.78,-402.36 1133.8,-403.44 1125.8,-404.41 1117.78,-405.28 1109.77,-406.02 1101.78,-406.65 1093.82,-407.17 1085.9,-407.56 1078.03,-407.83 1070.22,-407.98 1062.47,-408.01 1054.79,-407.91 1047.19,-407.68 1039.66,-407.33 1032.23,-406.85 1024.88,-406.25 1017.63,-405.52 1010.48,-404.68 1003.43,-403.71 996.5,-402.62 989.68,-401.42 982.99,-400.1 976.43,-398.67 970.01,-397.14 963.74,-395.5 957.63,-393.76 951.7,-391.93 945.95,-390.01 940.4,-388 935.07,-385.92 929.97,-383.76 925.12,-381.53 920.53,-379.25 916.23,-376.9 912.24,-374.52 908.57,-372.09 905.25,-369.63 902.3,-367.14 899.74,-364.63 897.58,-362.12 895.85,-359.59 894.58,-357.08 893.77,-354.57 893.44,-352.09 893.62,-349.63 894.32,-347.2 895.55,-344.82 897.32,-342.49 899.64,-340.21 902.52,-337.99 905.97,-335.85 909.98,-333.78 914.56,-331.79 919.7,-329.89 925.4,-328.09 931.65,-326.38 938.43,-324.78 945.73,-323.28 953.53,-321.9 961.82,-320.63 970.55,-319.49 979.72,-318.46 989.29,-317.57 999.22,-316.79 1009.48,-316.15 1020.04,-315.64 1030.85,-315.26 1041.88,-315.01 1053.07,-314.89 1064.39,-314.91 1075.79,-315.06 1087.22,-315.33 1098.64,-315.74 1110,-316.27 1121.25,-316.92"/>
<text text-anchor="middle" x="1073.87" y="-357.8" font-family="sans-serif" font-size="16.00">DataAnonimizationContext</text>
</g>
<!-- AutomatizationContext&#45;&gt;DataAnonimizationContext -->
<g id="edge5" class="edge">
<title>AutomatizationContext&#45;&gt;DataAnonimizationContext</title>
<path fill="none" stroke="black" stroke-width="2" d="M1151.69,-620.26C1155.86,-571.02 1156.99,-492.28 1131.87,-430.21 1128.39,-421.62 1123.36,-413.35 1117.69,-405.72"/>
<text text-anchor="middle" x="1214" y="-513.13" font-family="sans-serif" font-size="12.00"> &#160;&#160;&#160;&#160;&#160;&#160;&#160;&#160;&#160;&#160;&#160;&#160;&#160;&#160;&#160;&#160;&#160;&#160;&#160;&#160;&#160;&#160;&#160;&#160;&#160;&#160;&#160;&#160;&#160;&#160;&#160;&#160;&#160;&#160;&#160;&#160;&#160;&#160;&#160;</text>
<polygon fill="white" stroke="none" points="1111.19,-395.1 1111.19,-416.35 1124.19,-416.35 1124.19,-395.1 1111.19,-395.1"/>
<text text-anchor="start" x="1113.19" y="-402.95" font-family="sans-serif" font-size="12.00">D</text>
<polygon fill="white" stroke="none" points="1145.19,-609.63 1145.19,-630.88 1158.19,-630.88 1158.19,-609.63 1145.19,-609.63"/>
<text text-anchor="start" x="1147.19" y="-617.48" font-family="sans-serif" font-size="12.00">U</text>
</g>
<!-- DataIngestionContext -->
<g id="node7" class="node">
<title>DataIngestionContext</title>
<polygon fill="none" stroke="black" stroke-width="2" points="856.5,-553.26 848.66,-551.48 841.1,-549.61 833.87,-547.66 827,-545.62 820.5,-543.52 814.42,-541.35 808.77,-539.13 803.59,-536.86 798.88,-534.55 794.67,-532.21 790.97,-529.85 787.81,-527.46 785.18,-525.07 783.1,-522.67 781.58,-520.27 780.61,-517.88 780.2,-515.51 780.34,-513.15 781.04,-510.82 782.27,-508.53 784.04,-506.27 786.32,-504.05 789.11,-501.88 792.38,-499.76 796.13,-497.69 800.32,-495.67 804.94,-493.72 809.95,-491.84 815.34,-490.02 821.09,-488.27 827.15,-486.59 833.51,-484.99 840.13,-483.46 846.99,-482.02 854.06,-480.65 861.31,-479.37 868.71,-478.18 876.23,-477.07 883.85,-476.05 891.53,-475.12 899.26,-474.29 907.01,-473.54 914.75,-472.9 922.46,-472.35 930.13,-471.9 937.73,-471.55 945.24,-471.3 952.64,-471.15 959.93,-471.11 967.08,-471.17 974.09,-471.34 980.94,-471.61 987.61,-472 994.12,-472.49 1000.43,-473.1 1006.56,-473.81 1012.48,-474.63 1018.21,-475.57 1023.73,-476.61 1029.03,-477.76 1034.13,-479.02 1039.01,-480.38 1043.67,-481.85 1048.1,-483.43 1052.32,-485.1 1056.31,-486.87 1060.07,-488.74 1063.61,-490.69 1066.91,-492.74 1069.97,-494.86 1072.8,-497.06 1075.38,-499.34 1077.71,-501.68 1079.79,-504.08 1081.61,-506.53 1083.16,-509.03 1084.44,-511.57 1085.45,-514.14 1086.16,-516.73 1086.58,-519.34 1086.7,-521.95 1086.5,-524.57 1085.99,-527.17 1085.15,-529.75 1083.98,-532.31 1082.46,-534.83 1080.6,-537.3 1078.38,-539.71 1075.8,-542.06 1072.86,-544.34 1069.55,-546.54 1065.87,-548.65 1061.82,-550.66 1057.39,-552.56 1052.6,-554.36 1047.44,-556.03 1041.93,-557.59 1036.06,-559.01 1029.85,-560.29 1023.31,-561.44 1016.45,-562.44 1009.29,-563.29 1001.84,-563.99 994.12,-564.54 986.16,-564.94 977.98,-565.18 969.6,-565.26 961.05,-565.19 952.36,-564.97 943.55,-564.59 934.66,-564.07 925.73,-563.4 916.77,-562.58 907.83,-561.63 898.94,-560.54 890.14,-559.32 881.46,-557.98 872.94,-556.52 864.61,-554.94 856.5,-553.26"/>
<text text-anchor="middle" x="944.87" y="-511.96" font-family="sans-serif" font-size="16.00">DataIngestionContext</text>
</g>
<!-- AutomatizationContext&#45;&gt;DataIngestionContext -->
<g id="edge6" class="edge">
<title>AutomatizationContext&#45;&gt;DataIngestionContext</title>
<path fill="none" stroke="black" stroke-width="2" d="M1047.23,-625.32C1034.79,-618.22 1022.66,-610.3 1011.87,-601.61 999.17,-591.37 987.36,-578.31 977.31,-565.53"/>
<text text-anchor="middle" x="1071.87" y="-590.21" font-family="sans-serif" font-size="12.00"> &#160;&#160;&#160;&#160;&#160;&#160;&#160;&#160;&#160;&#160;&#160;&#160;&#160;&#160;&#160;&#160;&#160;&#160;&#160;&#160;&#160;&#160;&#160;&#160;&#160;&#160;&#160;&#160;&#160;&#160;&#160;&#160;&#160;&#160;&#160;&#160;&#160;&#160;&#160;</text>
<polygon fill="white" stroke="none" points="970.81,-554.9 970.81,-576.15 983.81,-576.15 983.81,-554.9 970.81,-554.9"/>
<text text-anchor="start" x="972.81" y="-562.75" font-family="sans-serif" font-size="12.00">D</text>
<polygon fill="white" stroke="none" points="1040.73,-614.69 1040.73,-635.94 1053.73,-635.94 1053.73,-614.69 1040.73,-614.69"/>
<text text-anchor="start" x="1042.73" y="-622.54" font-family="sans-serif" font-size="12.00">U</text>
</g>
<!-- DataAnonimizationContext&#45;&gt;DataCanonizationContext -->
<g id="edge7" class="edge">
<title>DataAnonimizationContext&#45;&gt;DataCanonizationContext</title>
<path fill="none" stroke="black" stroke-width="2" d="M1043.6,-314.5C1031.93,-296.67 1018.55,-276.23 1006.65,-258.06"/>
<text text-anchor="middle" x="1086.87" y="-281.9" font-family="sans-serif" font-size="12.00"> &#160;&#160;&#160;&#160;&#160;&#160;&#160;&#160;&#160;&#160;&#160;&#160;&#160;&#160;&#160;&#160;&#160;&#160;&#160;&#160;&#160;&#160;&#160;&#160;&#160;&#160;&#160;&#160;&#160;&#160;&#160;&#160;&#160;&#160;&#160;&#160;&#160;&#160;&#160;</text>
<polygon fill="white" stroke="none" points="1000.15,-247.43 1000.15,-268.68 1013.15,-268.68 1013.15,-247.43 1000.15,-247.43"/>
<text text-anchor="start" x="1002.15" y="-255.28" font-family="sans-serif" font-size="12.00">D</text>
<polygon fill="white" stroke="none" points="1037.1,-303.87 1037.1,-325.12 1050.1,-325.12 1050.1,-303.87 1037.1,-303.87"/>
<text text-anchor="start" x="1039.1" y="-311.72" font-family="sans-serif" font-size="12.00">U</text>
</g>
<!-- DataIngestionContext&#45;&gt;DataAnonimizationContext -->
<g id="edge8" class="edge">
<title>DataIngestionContext&#45;&gt;DataAnonimizationContext</title>
<path fill="none" stroke="black" stroke-width="2" d="M978.35,-471.32C988.87,-457.96 1000.68,-443.33 1011.87,-430.21 1018.27,-422.71 1025.21,-414.88 1032.05,-407.33"/>
<text text-anchor="middle" x="1071.87" y="-436.06" font-family="sans-serif" font-size="12.00"> &#160;&#160;&#160;&#160;&#160;&#160;&#160;&#160;&#160;&#160;&#160;&#160;&#160;&#160;&#160;&#160;&#160;&#160;&#160;&#160;&#160;&#160;&#160;&#160;&#160;&#160;&#160;&#160;&#160;&#160;&#160;&#160;&#160;&#160;&#160;&#160;&#160;&#160;&#160;</text>
<polygon fill="white" stroke="none" points="1025.55,-396.7 1025.55,-417.95 1038.55,-417.95 1038.55,-396.7 1025.55,-396.7"/>
<text text-anchor="start" x="1027.55" y="-404.55" font-family="sans-serif" font-size="12.00">D</text>
<polygon fill="white" stroke="none" points="971.85,-460.7 971.85,-481.95 984.85,-481.95 984.85,-460.7 971.85,-460.7"/>
<text text-anchor="start" x="973.85" y="-468.55" font-family="sans-serif" font-size="12.00">U</text>
</g>
<!-- DataSecurityAndPrivacyContext -->
<g id="node8" class="node">
<title>DataSecurityAndPrivacyContext</title>
<polygon fill="none" stroke="black" stroke-width="2" points="240.58,-505.72 243.25,-502.74 246.45,-499.81 250.16,-496.94 254.36,-494.13 259.06,-491.41 264.22,-488.79 269.84,-486.26 275.9,-483.85 282.38,-481.56 289.26,-479.39 296.52,-477.37 304.14,-475.49 312.11,-473.76 320.39,-472.19 328.97,-470.78 337.82,-469.53 346.91,-468.44 356.24,-467.53 365.76,-466.78 375.45,-466.2 385.3,-465.79 395.26,-465.54 405.33,-465.46 415.47,-465.54 425.65,-465.77 435.86,-466.16 446.06,-466.69 456.23,-467.36 466.34,-468.17 476.37,-469.11 486.29,-470.17 496.08,-471.34 505.71,-472.63 515.16,-474.01 524.4,-475.48 533.42,-477.04 542.18,-478.68 550.67,-480.39 558.86,-482.17 566.73,-484 574.26,-485.88 581.44,-487.8 588.23,-489.76 594.63,-491.75 600.62,-493.77 606.17,-495.81 611.28,-497.87 615.93,-499.94 620.1,-502.01 623.79,-504.09 626.98,-506.17 629.66,-508.25 631.82,-510.33 633.45,-512.39 634.56,-514.45 635.13,-516.5 635.15,-518.54 634.63,-520.57 633.57,-522.57 631.97,-524.57 629.83,-526.54 627.15,-528.5 623.93,-530.44 620.19,-532.35 615.94,-534.24 611.18,-536.11 605.92,-537.95 600.18,-539.76 593.97,-541.54 587.31,-543.28 580.21,-544.99 572.7,-546.66 564.8,-548.28 556.51,-549.85 547.88,-551.37 538.92,-552.83 529.65,-554.23 520.11,-555.57 510.32,-556.83 500.31,-558.01 490.1,-559.11 479.73,-560.11 469.23,-561.03 458.62,-561.83 447.94,-562.54 437.22,-563.13 426.49,-563.6 415.79,-563.94 405.13,-564.16 394.57,-564.24 384.12,-564.18 373.81,-563.98 363.69,-563.63 353.77,-563.14 344.09,-562.49 334.67,-561.69 325.55,-560.74 316.74,-559.63 308.28,-558.37 300.19,-556.96 292.49,-555.39 285.2,-553.68 278.35,-551.83 271.95,-549.84 266.02,-547.71 260.58,-545.46 255.64,-543.09 251.21,-540.6 247.3,-538.01 243.94,-535.33 241.11,-532.57 238.83,-529.72 237.11,-526.82 235.94,-523.86 235.33,-520.87 235.28,-517.85 235.78,-514.81 236.84,-511.76 238.44,-508.73 240.58,-505.72"/>
<text text-anchor="middle" x="435.87" y="-511.96" font-family="sans-serif" font-size="16.00">DataSecurityAndPrivacyContext</text>
</g>
<!-- DataSecurityAndPrivacyContext&#45;&gt;AIModelDevelopmentContext -->
<g id="edge9" class="edge">
<title>DataSecurityAndPrivacyContext&#45;&gt;AIModelDevelopmentContext</title>
<path fill="none" stroke="black" stroke-width="2" d="M498.91,-471.31C528.12,-451.11 562.76,-427.15 592.06,-406.89"/>
<text text-anchor="middle" x="612.47" y="-436.06" font-family="sans-serif" font-size="12.00"> &#160;&#160;&#160;&#160;&#160;&#160;&#160;&#160;&#160;&#160;&#160;&#160;&#160;&#160;&#160;&#160;&#160;&#160;&#160;&#160;&#160;&#160;&#160;&#160;&#160;&#160;&#160;&#160;&#160;&#160;&#160;&#160;&#160;&#160;&#160;&#160;&#160;&#160;&#160;</text>
<polygon fill="white" stroke="none" points="585.56,-396.26 585.56,-417.51 598.56,-417.51 598.56,-396.26 585.56,-396.26"/>
<text text-anchor="start" x="587.56" y="-404.11" font-family="sans-serif" font-size="12.00">D</text>
<polygon fill="white" stroke="none" points="492.41,-460.68 492.41,-481.93 505.41,-481.93 505.41,-460.68 492.41,-460.68"/>
<text text-anchor="start" x="494.41" y="-468.53" font-family="sans-serif" font-size="12.00">U</text>
</g>
<!-- DataSecurityAndPrivacyContext&#45;&gt;DataCanonizationContext -->
<g id="edge10" class="edge">
<title>DataSecurityAndPrivacyContext&#45;&gt;DataCanonizationContext</title>
<path fill="none" stroke="black" stroke-width="2" d="M361.06,-466.78C343.66,-451.6 327.44,-433.22 317.87,-412.21 299.28,-371.39 293.46,-348.92 317.87,-311.3 338.8,-279.04 359.46,-284.9 396.87,-276.05 569.18,-235.26 620.03,-286.08 794.87,-258.05 819.41,-254.11 845.37,-248.01 869.7,-241.41"/>
<text text-anchor="middle" x="377.87" y="-358.98" font-family="sans-serif" font-size="12.00"> &#160;&#160;&#160;&#160;&#160;&#160;&#160;&#160;&#160;&#160;&#160;&#160;&#160;&#160;&#160;&#160;&#160;&#160;&#160;&#160;&#160;&#160;&#160;&#160;&#160;&#160;&#160;&#160;&#160;&#160;&#160;&#160;&#160;&#160;&#160;&#160;&#160;&#160;&#160;</text>
<polygon fill="white" stroke="none" points="863.2,-230.79 863.2,-252.04 876.2,-252.04 876.2,-230.79 863.2,-230.79"/>
<text text-anchor="start" x="865.2" y="-238.64" font-family="sans-serif" font-size="12.00">D</text>
<polygon fill="white" stroke="none" points="354.56,-456.15 354.56,-477.4 367.56,-477.4 367.56,-456.15 354.56,-456.15"/>
<text text-anchor="start" x="356.56" y="-464" font-family="sans-serif" font-size="12.00">U</text>
</g>
<!-- DataSecurityAndPrivacyContext&#45;&gt;ServiceResearchContext -->
<g id="edge12" class="edge">
<title>DataSecurityAndPrivacyContext&#45;&gt;ServiceResearchContext</title>
<path fill="none" stroke="black" stroke-width="2" d="M269.45,-485.9C229.39,-470.69 191.18,-447.51 166.87,-412.21 134.78,-365.6 145.39,-297.79 157.96,-253.29"/>
<text text-anchor="middle" x="226.87" y="-358.98" font-family="sans-serif" font-size="12.00"> &#160;&#160;&#160;&#160;&#160;&#160;&#160;&#160;&#160;&#160;&#160;&#160;&#160;&#160;&#160;&#160;&#160;&#160;&#160;&#160;&#160;&#160;&#160;&#160;&#160;&#160;&#160;&#160;&#160;&#160;&#160;&#160;&#160;&#160;&#160;&#160;&#160;&#160;&#160;</text>
<polygon fill="white" stroke="none" points="151.46,-242.66 151.46,-263.91 164.46,-263.91 164.46,-242.66 151.46,-242.66"/>
<text text-anchor="start" x="153.46" y="-250.51" font-family="sans-serif" font-size="12.00">D</text>
<polygon fill="white" stroke="none" points="262.95,-475.28 262.95,-496.53 275.95,-496.53 275.95,-475.28 262.95,-475.28"/>
<text text-anchor="start" x="264.95" y="-483.13" font-family="sans-serif" font-size="12.00">U</text>
</g>
<!-- DataSecurityAndPrivacyContext&#45;&gt;DataAnonimizationContext -->
<g id="edge11" class="edge">
<title>DataSecurityAndPrivacyContext&#45;&gt;DataAnonimizationContext</title>
<path fill="none" stroke="black" stroke-width="2" d="M568.7,-484.2C655.59,-464.01 771.55,-436.85 873.87,-412.21 899.52,-406.03 926.98,-399.31 953.1,-392.87"/>
<text text-anchor="middle" x="850.14" y="-436.06" font-family="sans-serif" font-size="12.00"> &#160;&#160;&#160;&#160;&#160;&#160;&#160;&#160;&#160;&#160;&#160;&#160;&#160;&#160;&#160;&#160;&#160;&#160;&#160;&#160;&#160;&#160;&#160;&#160;&#160;&#160;&#160;&#160;&#160;&#160;&#160;&#160;&#160;&#160;&#160;&#160;&#160;&#160;&#160;</text>
<polygon fill="white" stroke="none" points="946.6,-382.24 946.6,-403.49 959.6,-403.49 959.6,-382.24 946.6,-382.24"/>
<text text-anchor="start" x="948.6" y="-390.09" font-family="sans-serif" font-size="12.00">D</text>
<polygon fill="white" stroke="none" points="562.2,-473.58 562.2,-494.83 575.2,-494.83 575.2,-473.58 562.2,-473.58"/>
<text text-anchor="start" x="564.2" y="-481.43" font-family="sans-serif" font-size="12.00">U</text>
</g>
<!-- SalesManagementContext -->
<g id="node9" class="node">
<title>SalesManagementContext</title>
<polygon fill="none" stroke="black" stroke-width="2" points="496.27,-244.8 487.1,-243.07 478.26,-241.24 469.79,-239.32 461.73,-237.33 454.1,-235.26 446.94,-233.12 440.28,-230.94 434.15,-228.7 428.57,-226.41 423.56,-224.09 419.14,-221.75 415.34,-219.38 412.15,-217 409.6,-214.61 407.68,-212.22 406.41,-209.84 405.79,-207.47 405.8,-205.12 406.45,-202.79 407.73,-200.48 409.62,-198.21 412.12,-195.98 415.2,-193.8 418.84,-191.66 423.03,-189.57 427.74,-187.53 432.94,-185.56 438.61,-183.64 444.72,-181.79 451.23,-180.01 458.12,-178.3 465.36,-176.66 472.9,-175.1 480.73,-173.62 488.8,-172.22 497.08,-170.9 505.55,-169.66 514.16,-168.51 522.88,-167.45 531.69,-166.48 540.56,-165.6 549.46,-164.82 558.35,-164.13 567.22,-163.54 576.04,-163.04 584.78,-162.65 593.44,-162.36 601.97,-162.17 610.38,-162.09 618.64,-162.11 626.74,-162.25 634.66,-162.48 642.39,-162.83 649.93,-163.29 657.26,-163.86 664.37,-164.54 671.26,-165.33 677.93,-166.23 684.37,-167.24 690.57,-168.36 696.53,-169.6 702.24,-170.93 707.71,-172.38 712.94,-173.93 717.91,-175.58 722.63,-177.33 727.09,-179.17 731.3,-181.11 735.24,-183.13 738.91,-185.24 742.31,-187.43 745.44,-189.69 748.28,-192.01 750.83,-194.4 753.09,-196.84 755.04,-199.33 756.68,-201.86 758,-204.43 758.99,-207.02 759.65,-209.62 759.95,-212.24 759.89,-214.85 759.47,-217.46 758.67,-220.04 757.48,-222.6 755.89,-225.13 753.9,-227.61 751.49,-230.04 748.67,-232.4 745.42,-234.7 741.73,-236.91 737.62,-239.04 733.07,-241.07 728.09,-243 722.67,-244.82 716.83,-246.53 710.56,-248.11 703.88,-249.56 696.8,-250.88 689.32,-252.06 681.47,-253.1 673.25,-253.99 664.7,-254.73 655.83,-255.32 646.67,-255.76 637.24,-256.05 627.58,-256.18 617.7,-256.16 607.66,-255.98 597.47,-255.66 587.18,-255.18 576.82,-254.56 566.43,-253.79 556.05,-252.89 545.72,-251.85 535.49,-250.68 525.38,-249.38 515.45,-247.97 505.74,-246.44 496.27,-244.8"/>
<text text-anchor="middle" x="595.87" y="-203.02" font-family="sans-serif" font-size="16.00">SalesManagementContext</text>
</g>
<!-- SalesManagementContext&#45;&gt;SaludTechPlatformDevelopmentContext -->
<g id="edge13" class="edge">
<title>SalesManagementContext&#45;&gt;SaludTechPlatformDevelopmentContext</title>
<path fill="none" stroke="black" stroke-width="2" d="M616.22,-161.94C624.7,-143.58 634.6,-122.15 643.39,-103.13"/>
<text text-anchor="middle" x="693.5" y="-126.49" font-family="sans-serif" font-size="12.00"> &#160;&#160;&#160;&#160;&#160;&#160;&#160;&#160;&#160;&#160;&#160;&#160;&#160;&#160;&#160;&#160;&#160;&#160;&#160;&#160;&#160;&#160;&#160;&#160;&#160;&#160;&#160;&#160;&#160;&#160;&#160;&#160;&#160;&#160;&#160;&#160;&#160;&#160;&#160;</text>
<polygon fill="white" stroke="none" points="636.89,-92.51 636.89,-113.76 649.89,-113.76 649.89,-92.51 636.89,-92.51"/>
<text text-anchor="start" x="638.89" y="-100.36" font-family="sans-serif" font-size="12.00">D</text>
<polygon fill="white" stroke="none" points="609.72,-151.31 609.72,-172.56 622.72,-172.56 622.72,-151.31 609.72,-151.31"/>
<text text-anchor="start" x="611.72" y="-159.16" font-family="sans-serif" font-size="12.00">U</text>
</g>
</g>
</svg>
